<svg width="32" height="32" viewBox="0 0 32 32" fill="none" xmlns="http://www.w3.org/2000/svg">
<rect width="32" height="32" rx="16" fill="#FCFBFB"/>
<g clip-path="url(#clip0_39_892)">
<path d="M23.6856 12.027C23.5949 11.6887 23.417 11.3801 23.1696 11.1322C22.9222 10.8842 22.6141 10.7056 22.276 10.6142C21.0232 10.2702 16.0112 10.2646 16.0112 10.2646C16.0112 10.2646 11 10.259 9.7464 10.5878C9.40874 10.6839 9.10146 10.8652 8.85405 11.1143C8.60665 11.3634 8.42743 11.6719 8.3336 12.0102C8.0032 13.263 8 15.8614 8 15.8614C8 15.8614 7.9968 18.4726 8.3248 19.7126C8.5088 20.3982 9.0488 20.9398 9.7352 21.1246C11.0008 21.4686 15.9992 21.4742 15.9992 21.4742C15.9992 21.4742 21.0112 21.4798 22.264 21.1518C22.6018 21.0597 22.9098 20.8812 23.1577 20.6339C23.4056 20.3866 23.5847 20.079 23.6776 19.7414C24.0088 18.4894 24.0112 15.8918 24.0112 15.8918C24.0112 15.8918 24.0272 13.2798 23.6856 12.027ZM14.408 18.2686L14.412 13.4686L18.5776 15.8726L14.408 18.2686Z" fill="#650C0F"/>
</g>
<defs>
<clipPath id="clip0_39_892">
<rect width="16" height="16" fill="white" transform="translate(8 8)"/>
</clipPath>
</defs>
</svg>
