<svg width="32" height="32" viewBox="0 0 32 32" fill="none" xmlns="http://www.w3.org/2000/svg">
<rect width="32" height="32" rx="16" fill="#FCFBFB"/>
<g clip-path="url(#clip0_39_896)">
<path d="M10.5504 12.1654C11.5172 12.1654 12.3008 11.3817 12.3008 10.415C12.3008 9.44823 11.5172 8.66455 10.5504 8.66455C9.58373 8.66455 8.80005 9.44823 8.80005 10.415C8.80005 11.3817 9.58373 12.1654 10.5504 12.1654Z" fill="#650C0F"/>
<path d="M13.9536 13.4918V23.203H16.9688V18.4006C16.9688 17.1334 17.2072 15.9062 18.7784 15.9062C20.328 15.9062 20.3472 17.355 20.3472 18.4806V23.2038H23.364V17.8782C23.364 15.2622 22.8008 13.2518 19.7432 13.2518C18.2752 13.2518 17.2912 14.0574 16.8888 14.8198H16.848V13.4918H13.9536ZM9.04004 13.4918H12.06V23.203H9.04004V13.4918Z" fill="#650C0F"/>
</g>
<defs>
<clipPath id="clip0_39_896">
<rect width="16" height="16" fill="white" transform="translate(8 8)"/>
</clipPath>
</defs>
</svg>
