<svg width="90" height="83" viewBox="0 0 90 83" fill="none" xmlns="http://www.w3.org/2000/svg">
<path d="M33 63C49.5685 63 63 49.5685 63 33C63 16.4315 49.5685 3 33 3C16.4315 3 3 16.4315 3 33C3 49.5685 16.4315 63 33 63Z" fill="url(#paint0_linear_3516_17691)"/>
<path fill-rule="evenodd" clip-rule="evenodd" d="M65.9497 77.0323C65.735 77.2702 65.4288 77.406 65.1075 77.406L64.7088 77.4062L85.9875 77.406C86.3088 77.406 86.615 77.2702 86.8297 77.0323C87.0444 76.7943 87.1475 76.4767 87.1137 76.1588C86.6251 71.6142 83.5992 67.9189 79.5228 66.396C80.9688 65.2002 81.8913 63.3974 81.8913 61.3839C81.8913 57.7917 78.9562 54.8694 75.3485 54.8694C71.7408 54.8694 68.8057 57.7919 68.8057 61.3839C68.8057 63.3973 69.7282 65.2001 71.1743 66.396C68.4868 67.4 66.2577 69.3486 64.9099 71.8625C65.443 72.8565 65.8381 73.9388 66.0687 75.0861C67.1192 70.9086 70.8975 67.8995 75.3452 67.8981H75.3482H75.3511C79.822 67.8993 83.6165 70.94 84.6438 75.1514L66.0817 75.1515C66.1462 75.4821 66.1971 75.818 66.2337 76.1588C66.2675 76.4767 66.1644 76.7943 65.9497 77.0323ZM75.3482 65.6434H75.3453C72.9877 65.6418 71.0701 63.7316 71.0698 61.3837C71.0698 59.0349 72.9891 57.1239 75.348 57.1239C77.7071 57.1239 79.6264 59.0349 79.6264 61.3837C79.6264 63.7316 77.7088 65.6418 75.351 65.6434H75.3482Z" fill="#650C0F"/>
<path d="M18.2749 51.8994V54.0594H23.7449L23.7485 51.8994H18.2749Z" fill="#650C0F"/>
<path d="M16.0104 51.8994V54.0594H18.2749V51.8994H16.0104Z" fill="#650C0F"/>
<path d="M16.0104 54.0594V51.8994H10.991V54.0594H16.0104Z" fill="#650C0F"/>
<path d="M8.72647 51.8994V51.8994C8.72647 53.0923 9.69354 54.0594 10.8865 54.0594H10.991V51.8994H8.72647Z" fill="#650C0F"/>
<path d="M23.8494 54.0594C25.0429 54.0594 26.011 53.0929 26.0129 51.8994V51.8994H23.7485L23.7449 54.0594H23.8494Z" fill="#650C0F"/>
<path d="M48.3559 13.4293C48.3559 14.0519 47.8489 14.5567 47.2237 14.5567H35.6234C34.9981 14.5567 34.4912 14.0519 34.4912 13.4293C34.4912 12.8068 34.9981 12.302 35.6234 12.302H47.2237C47.8491 12.302 48.3559 12.8068 48.3559 13.4293Z" fill="#650C0F"/>
<path fill-rule="evenodd" clip-rule="evenodd" d="M26.0478 32.9182L28.5987 29.8463H29.4425V36.5574C29.4425 39.4672 31.8203 41.8345 34.743 41.8345H50.1289H52.3934H67.7796C70.7022 41.8345 73.0798 39.4672 73.0798 36.5574V11.6366C73.0798 8.72678 70.7021 6.35938 67.7796 6.35938H34.7428C31.8201 6.35938 29.4423 8.72678 29.4423 11.6366V23.2183H21.0813C23.0771 21.6541 24.4089 18.8693 24.4089 15.6994C24.4089 11.2309 21.7127 8.45496 17.3725 8.45496C13.0321 8.45496 10.336 11.2309 10.336 15.6994C10.336 18.8693 11.6678 21.6541 13.6635 23.2183H10.8949C7.08867 23.2183 2.96826 25.6927 2.94802 29.6902L2.88008 40.6732C2.87173 42.3439 3.53637 43.9339 4.7517 45.1501C5.8129 46.2119 7.22581 46.8966 8.72647 47.0953V51.8994H10.991V29.6885C10.991 29.0659 10.484 28.5612 9.85873 28.5612C9.23344 28.5612 8.72647 29.0659 8.72647 29.6885V44.8118C7.82945 44.6346 6.99639 44.1996 6.35695 43.5599C5.56975 42.772 5.13907 41.7509 5.14459 40.6846L5.21267 29.7013C5.22654 26.9423 8.52168 25.4728 10.895 25.4728H35.2722C35.5248 25.4728 35.7702 25.3887 35.9693 25.2338L41.5832 20.8658C42.042 20.5093 42.7068 20.5903 43.0652 21.0472C43.4235 21.504 43.3419 22.1659 42.8829 22.5229L36.8131 27.2454C36.7877 27.2652 36.763 27.2863 36.7393 27.3081C36.542 27.4909 36.2848 27.5915 36.0152 27.5915H28.0656C27.7279 27.5915 27.4081 27.7415 27.193 28.0005L24.0436 31.7931C23.8762 31.9948 23.7845 32.2481 23.784 32.5097L23.7485 51.8994H26.0129L26.0478 32.9182ZM22.1444 15.6994C22.1444 19.3379 20.0037 22.2981 17.3725 22.2981C14.7413 22.2981 12.6006 19.3379 12.6005 15.6994C12.6005 11.358 15.5903 10.7096 17.3725 10.7096C19.1545 10.7096 22.1444 11.3579 22.1444 15.6994ZM31.707 29.8463H36.0152C36.841 29.8463 37.6296 29.5445 38.2418 28.9951L44.277 24.2996C44.9758 23.756 45.4204 22.9739 45.5285 22.0974C45.5799 21.6807 45.5515 21.2667 45.4498 20.872L53.3285 14.764C53.8219 14.3814 53.9103 13.673 53.5262 13.1817C53.1421 12.6905 52.4305 12.6026 51.9372 12.9849L44.1677 19.0084C43.0012 18.1764 41.3763 18.166 40.189 19.0891L34.8821 23.2183H31.7068V11.6366C31.7068 9.96996 33.0688 8.61405 34.7428 8.61405H67.7797C69.4536 8.61405 70.8154 9.96996 70.8154 11.6366V36.5574C70.8154 38.2239 69.4536 39.5798 67.7797 39.5798H34.743C33.0689 39.5798 31.707 38.2239 31.707 36.5574V29.8463Z" fill="#650C0F"/>
<path d="M23.784 32.5097C23.7845 32.2481 23.8762 31.9948 24.0436 31.7931L27.193 28.0005C27.4081 27.7415 27.7279 27.5915 28.0656 27.5915H36.0152C36.2848 27.5915 36.542 27.4909 36.7393 27.3081C36.763 27.2863 36.7877 27.2652 36.8131 27.2454L42.8829 22.5229C43.3419 22.1659 43.4235 21.504 43.0652 21.0472C42.7068 20.5903 42.042 20.5093 41.5832 20.8658L35.9693 25.2338C35.7702 25.3887 35.5248 25.4728 35.2722 25.4728H10.895C8.52168 25.4728 5.22654 26.9423 5.21267 29.7013L5.14459 40.6846C5.13907 41.7509 5.56975 42.772 6.35695 43.5599C6.99639 44.1996 7.82945 44.6346 8.72647 44.8118V29.6885C8.72647 29.0659 9.23344 28.5612 9.85873 28.5612C10.484 28.5612 10.991 29.0659 10.991 29.6885V51.8994H16.0104H18.2749H23.7485L23.784 32.5097Z" fill="white"/>
<path fill-rule="evenodd" clip-rule="evenodd" d="M36.0152 29.8463H31.707V36.5574C31.707 38.2239 33.0689 39.5798 34.743 39.5798H67.7797C69.4536 39.5798 70.8154 38.2239 70.8154 36.5574V11.6366C70.8154 9.96996 69.4536 8.61405 67.7797 8.61405H34.7428C33.0688 8.61405 31.7068 9.96996 31.7068 11.6366V23.2183H34.8821L40.189 19.0891C41.3763 18.166 43.0012 18.1764 44.1677 19.0084L51.9372 12.9849C52.4305 12.6026 53.1421 12.6905 53.5262 13.1817C53.9103 13.673 53.8219 14.3814 53.3285 14.764L45.4498 20.872C45.5515 21.2667 45.5799 21.6807 45.5285 22.0974C45.4204 22.9739 44.9758 23.756 44.277 24.2996L38.2418 28.9951C37.6296 29.5445 36.841 29.8463 36.0152 29.8463ZM47.2237 14.5567C47.8489 14.5567 48.3559 14.0519 48.3559 13.4293C48.3559 12.8068 47.8491 12.302 47.2237 12.302H35.6234C34.9981 12.302 34.4912 12.8068 34.4912 13.4293C34.4912 14.0519 34.9981 14.5567 35.6234 14.5567H47.2237ZM66.8987 19.8904H51.7368C51.1114 19.8904 50.6046 19.3856 50.6046 18.7631C50.6046 18.1405 51.1115 17.6357 51.7368 17.6357H66.8987C67.524 17.6357 68.0309 18.1405 68.0309 18.7631C68.0309 19.3856 67.524 19.8904 66.8987 19.8904ZM66.8987 14.5567H57.5865C56.961 14.5567 56.4542 14.0519 56.4542 13.4293C56.4542 12.8068 56.9612 12.302 57.5865 12.302H66.8987C67.524 12.302 68.0309 12.8068 68.0309 13.4293C68.0309 14.0519 67.524 14.5567 66.8987 14.5567ZM66.8987 25.2243H48.6523C48.0268 25.2243 47.52 24.7195 47.52 24.0969C47.52 23.4743 48.027 22.9696 48.6523 22.9696H66.8987C67.524 22.9696 68.0309 23.4743 68.0309 24.0969C68.0309 24.7195 67.524 25.2243 66.8987 25.2243ZM66.8987 35.892H35.6236C34.9981 35.892 34.4913 35.3872 34.4913 34.7646C34.4913 34.1421 34.9983 33.6373 35.6236 33.6373H66.8987C67.524 33.6373 68.0309 34.1421 68.0309 34.7646C68.0309 35.3872 67.524 35.892 66.8987 35.892ZM66.8985 30.558H42.3911C41.7658 30.558 41.2588 30.0532 41.2588 29.4306C41.2588 28.8081 41.7658 28.3033 42.3911 28.3033H66.8985C67.5238 28.3033 68.0308 28.8081 68.0308 29.4306C68.0308 30.0532 67.5238 30.558 66.8985 30.558Z" fill="white"/>
<path fill-rule="evenodd" clip-rule="evenodd" d="M68.0309 18.7631C68.0309 19.3856 67.524 19.8904 66.8987 19.8904H51.7368C51.1114 19.8904 50.6046 19.3856 50.6046 18.7631C50.6046 18.1405 51.1115 17.6357 51.7368 17.6357H66.8987C67.524 17.6357 68.0309 18.1405 68.0309 18.7631ZM68.0309 13.4293C68.0309 14.0519 67.524 14.5567 66.8987 14.5567H57.5865C56.961 14.5567 56.4542 14.0519 56.4542 13.4293C56.4542 12.8068 56.9612 12.302 57.5865 12.302H66.8987C67.524 12.302 68.0309 12.8068 68.0309 13.4293ZM68.0309 24.0969C68.0309 24.7195 67.524 25.2243 66.8987 25.2243H48.6523C48.0268 25.2243 47.52 24.7195 47.52 24.0969C47.52 23.4743 48.027 22.9696 48.6523 22.9696H66.8987C67.524 22.9696 68.0309 23.4743 68.0309 24.0969ZM68.0308 29.4306C68.0308 30.0532 67.5238 30.558 66.8985 30.558H42.3911C41.7658 30.558 41.2588 30.0532 41.2588 29.4306C41.2588 28.8081 41.7658 28.3033 42.3911 28.3033H66.8985C67.5238 28.3033 68.0308 28.8081 68.0308 29.4306ZM65.1075 77.406C65.4288 77.406 65.735 77.2702 65.9497 77.0323C66.1644 76.7943 66.2675 76.4767 66.2337 76.1588C66.1971 75.818 66.1462 75.4821 66.0817 75.1515L66.0768 75.1269L66.0687 75.0861C65.8381 73.9388 65.443 72.8565 64.9099 71.8625C63.5617 69.3487 61.3306 67.4001 58.6428 66.396C60.0888 65.2002 61.0113 63.3974 61.0113 61.3839C61.0113 57.7917 58.0762 54.8694 54.4685 54.8694C50.8608 54.8694 47.9257 57.7919 47.9257 61.3839C47.9257 63.3973 48.8482 65.2001 50.2943 66.396C47.4686 67.4516 45.1496 69.5516 43.829 72.2548C42.5083 69.5516 40.1893 67.4516 37.3637 66.396C38.8097 65.2002 39.7322 63.3974 39.7322 61.3839C39.7322 57.7917 36.7971 54.8694 33.1895 54.8694C29.5818 54.8694 26.6467 57.7919 26.6467 61.3839C26.6467 63.3973 27.5692 65.2002 29.0153 66.396C24.9389 67.9189 21.9129 71.6142 21.4244 76.1588C21.3901 76.4768 21.4933 76.7944 21.708 77.0323C21.9227 77.2702 22.2288 77.406 22.5501 77.406L43.8288 77.4062L65.1075 77.406ZM54.4682 65.6434H54.4653C52.1077 65.6418 50.1901 63.7316 50.1898 61.3837C50.1898 59.0349 52.1091 57.1239 54.468 57.1239C56.8271 57.1239 58.7464 59.0349 58.7464 61.3837C58.7464 63.7316 56.8288 65.6418 54.471 65.6434H54.4682ZM33.1893 65.6434H33.1865C30.8287 65.6418 28.9111 63.7316 28.9111 61.3837C28.9111 59.0349 30.8303 57.1239 33.1893 57.1239C35.5484 57.1239 37.4675 59.0349 37.4675 61.3837C37.4675 63.7316 35.5499 65.6418 33.1921 65.6434H33.1893ZM33.1923 67.8981C37.6631 67.8993 41.4576 70.94 42.485 75.1515L23.8937 75.1514C24.9212 70.94 28.7155 67.8995 33.1863 67.8981H33.1893H33.1923ZM54.4711 67.8981C58.942 67.8993 62.7365 70.94 63.7638 75.1514L45.1725 75.1515C46.1999 70.94 49.9944 67.8995 54.4652 67.8981H54.4682H54.4711ZM48.3559 13.4293C48.3559 14.0519 47.8489 14.5567 47.2237 14.5567H35.6234C34.9981 14.5567 34.4912 14.0519 34.4912 13.4293C34.4912 12.8068 34.9981 12.302 35.6234 12.302H47.2237C47.8491 12.302 48.3559 12.8068 48.3559 13.4293Z" fill="#650C0F"/>
<path d="M35.6236 35.892H66.8987C67.524 35.892 68.0309 35.3872 68.0309 34.7646C68.0309 34.1421 67.524 33.6373 66.8987 33.6373H35.6236C34.9983 33.6373 34.4913 34.1421 34.4913 34.7646C34.4913 35.3872 34.9981 35.892 35.6236 35.892Z" fill="#650C0F"/>
<path d="M17.3725 22.2981C20.0037 22.2981 22.1444 19.3379 22.1444 15.6994C22.1444 11.3579 19.1545 10.7096 17.3725 10.7096C15.5903 10.7096 12.6005 11.358 12.6005 15.6994C12.6006 19.3379 14.7413 22.2981 17.3725 22.2981Z" fill="white"/>
<path d="M54.4653 65.6434H54.4682H54.471C56.8288 65.6418 58.7464 63.7316 58.7464 61.3837C58.7464 59.0349 56.8271 57.1239 54.468 57.1239C52.1091 57.1239 50.1898 59.0349 50.1898 61.3837C50.1901 63.7316 52.1077 65.6418 54.4653 65.6434Z" fill="white"/>
<path d="M33.1865 65.6434H33.1893H33.1921C35.5499 65.6418 37.4675 63.7316 37.4675 61.3837C37.4675 59.0349 35.5484 57.1239 33.1893 57.1239C30.8303 57.1239 28.9111 59.0349 28.9111 61.3837C28.9111 63.7316 30.8287 65.6418 33.1865 65.6434Z" fill="white"/>
<path d="M75.3453 65.6434H75.3482H75.351C77.7088 65.6418 79.6264 63.7316 79.6264 61.3837C79.6264 59.0349 77.7071 57.1239 75.348 57.1239C72.9891 57.1239 71.0698 59.0349 71.0698 61.3837C71.0701 63.7316 72.9877 65.6418 75.3453 65.6434Z" fill="white"/>
<path d="M42.485 75.1515C41.4576 70.94 37.6631 67.8993 33.1923 67.8981H33.1893H33.1863C28.7155 67.8995 24.9212 70.94 23.8937 75.1514L42.485 75.1515Z" fill="#CF9EAA"/>
<path d="M63.7638 75.1514C62.7365 70.94 58.942 67.8993 54.4711 67.8981H54.4682H54.4652C49.9944 67.8995 46.1999 70.94 45.1725 75.1515L63.7638 75.1514Z" fill="#CF9EAA"/>
<path d="M84.6438 75.1514C83.6165 70.94 79.822 67.8993 75.3511 67.8981H75.3482H75.3452C70.8975 67.8995 67.1192 70.9086 66.0687 75.0861L66.0768 75.1269L66.0817 75.1515L84.6438 75.1514Z" fill="#CF9EAA"/>
<defs>
<linearGradient id="paint0_linear_3516_17691" x1="29.7693" y1="34.8462" x2="33" y2="-18.1764" gradientUnits="userSpaceOnUse">
<stop stop-color="#F5A425"/>
<stop offset="1" stop-color="#F5A425" stop-opacity="0"/>
</linearGradient>
</defs>
</svg>
