<svg width="95" height="95" viewBox="0 0 95 95" fill="none" xmlns="http://www.w3.org/2000/svg">
<path d="M57.1724 76.8387C75.4929 76.8387 90.3446 61.987 90.3446 43.6666C90.3446 25.3461 75.4929 10.4944 57.1724 10.4944C38.8519 10.4944 24.0002 25.3461 24.0002 43.6666C24.0002 61.987 38.8519 76.8387 57.1724 76.8387Z" fill="url(#paint0_linear_6787_1637)"/>
<path d="M89.5194 26.7346H24.1506V75.234H89.5194V26.7346Z" fill="white"/>
<path fill-rule="evenodd" clip-rule="evenodd" d="M52.0669 52.9002C52.0669 53.3972 52.4698 53.8002 52.9669 53.8002H57.2336C57.7306 53.8002 58.1336 53.3972 58.1336 52.9002V36.9002C58.1336 36.4031 57.7306 36.0002 57.2336 36.0002H52.9669C52.4698 36.0002 52.0669 36.4031 52.0669 36.9002V52.9002ZM53.8669 52.0002V37.8002H56.3336V52.0002H53.8669Z" fill="#650C0F"/>
<path fill-rule="evenodd" clip-rule="evenodd" d="M43.5337 52.9002C43.5337 53.3972 43.9366 53.8002 44.4337 53.8002H48.7004C49.1974 53.8002 49.6004 53.3972 49.6004 52.9002V42.2335C49.6004 41.7364 49.1974 41.3335 48.7004 41.3335H44.4337C43.9366 41.3335 43.5337 41.7364 43.5337 42.2335V52.9002ZM45.3337 52.0002V43.1335H47.8004V52.0002H45.3337Z" fill="#650C0F"/>
<path fill-rule="evenodd" clip-rule="evenodd" d="M35.0005 52.9002C35.0005 53.3972 35.4034 53.8002 35.9005 53.8002H40.1672C40.6642 53.8002 41.0672 53.3972 41.0672 52.9002V47.5668C41.0672 47.0698 40.6642 46.6668 40.1672 46.6668H35.9005C35.4034 46.6668 35.0005 47.0698 35.0005 47.5668V52.9002ZM36.8005 52.0002V48.4668H39.2672V52.0002H36.8005Z" fill="#650C0F"/>
<path d="M89.5194 65.7449H24.1506V75.2339H89.5194V65.7449Z" fill="#CF9EAA"/>
<path d="M65.2705 75.2344H50.5098V82.6147H65.2705V75.2344Z" fill="white"/>
<path d="M24.1506 28.686V55.7289V73.2827C24.1506 74.3604 25.0242 75.234 26.102 75.234H53.1449H88.0953C89.1729 75.234 90.0465 74.3604 90.0465 73.2827V28.686C90.0465 27.6082 89.1729 26.7346 88.0953 26.7346H26.102C25.0242 26.7346 24.1506 27.6082 24.1506 28.686Z" stroke="#650C0F" stroke-width="1.87457"/>
<path d="M64.7433 75.7612V83.6687M69.9757 83.6687H49.9826M49.9826 83.6687H44.7109M49.9826 83.6687V75.7612" stroke="#650C0F" stroke-width="1.87457"/>
<path d="M24.1506 65.2179H90.0465" stroke="#650C0F" stroke-width="1.87457"/>
<path d="M57.3629 72.5401C58.4954 72.5401 59.4134 71.6221 59.4134 70.4897C59.4134 69.3572 58.4954 68.4392 57.3629 68.4392C56.2305 68.4392 55.3125 69.3572 55.3125 70.4897C55.3125 71.6221 56.2305 72.5401 57.3629 72.5401Z" fill="white" stroke="#650C0F" stroke-width="1.24971"/>
<path d="M85.5676 64.8955L82.6758 61.8483" stroke="#650C0F" stroke-width="1.87" stroke-miterlimit="10" stroke-linecap="round" stroke-linejoin="round"/>
<path d="M80.6406 56.0777L82.2178 57.6548" stroke="#650C0F" stroke-width="1.87" stroke-miterlimit="10" stroke-linecap="round" stroke-linejoin="round"/>
<path d="M80.348 59.5227L78.7715 57.9463" stroke="#650C0F" stroke-width="1.87" stroke-miterlimit="10" stroke-linecap="round" stroke-linejoin="round"/>
<path d="M89.2071 64.8955L84.543 59.9812" stroke="#650C0F" stroke-width="1.87" stroke-miterlimit="10" stroke-linecap="round" stroke-linejoin="round"/>
<path d="M84.6561 59.4634L82.0992 62.0203C81.8245 62.295 81.3791 62.295 81.1045 62.0203L80.1767 61.0926C79.902 60.8179 79.902 60.3724 80.1767 60.0977L82.7336 57.5409C83.0083 57.2661 83.4537 57.2661 83.7284 57.5409L84.6561 58.4686C84.9309 58.7432 84.9309 59.1887 84.6561 59.4634Z" stroke="#650C0F" stroke-width="1.87" stroke-miterlimit="10" stroke-linecap="round" stroke-linejoin="round"/>
<path d="M82.2928 48.4141C81.5476 43.7677 77.5209 40.2178 72.6644 40.2178C67.2784 40.2178 62.9121 44.5841 62.9121 49.9702C62.9121 55.3562 67.2785 59.7224 72.6645 59.7224C77.5655 59.7224 81.6215 56.1072 82.3125 51.3981" stroke="#650C0F" stroke-width="1.87" stroke-miterlimit="10" stroke-linecap="round" stroke-linejoin="round"/>
<path d="M79.4857 49.9702C79.4857 53.7692 76.406 56.8489 72.6071 56.8489C68.8082 56.8489 65.7285 53.7693 65.7285 49.9703C65.7284 46.1713 68.8081 43.0916 72.6071 43.0916C76.406 43.0916 79.4857 46.1713 79.4857 49.9702Z" stroke="#650C0F" stroke-width="1.87" stroke-miterlimit="10" stroke-linecap="round" stroke-linejoin="round"/>
<path d="M41.0475 57.0004H32.1048V54.6991C32.1039 53.8629 31.7702 53.0613 31.1771 52.4701C30.584 51.8789 29.7797 51.5463 28.9409 51.5454H19.05C18.2112 51.5463 17.4069 51.8788 16.8137 52.4701C16.2205 53.0613 15.8868 53.8629 15.8858 54.6991V57.0004H7.02374C6.27857 57.0011 5.56414 57.2965 5.03719 57.8217C4.51024 58.3469 4.21379 59.059 4.21289 59.8017V68.205C4.21254 68.3702 4.26768 68.5309 4.36952 68.6613C4.47137 68.7918 4.61406 68.8845 4.77489 68.9248L5.61386 69.1365V83.5396C5.61464 84.2811 5.9105 84.992 6.43651 85.5163C6.96252 86.0406 7.67572 86.3355 8.41961 86.3363H39.6516C40.3956 86.3355 41.1088 86.0406 41.6349 85.5163C42.161 84.992 42.4569 84.2811 42.4578 83.5396V69.1344L43.2963 68.9227C43.4572 68.8824 43.5999 68.7897 43.7017 68.6592C43.8036 68.5288 43.8587 68.3681 43.8583 68.2028V59.8034C43.8579 59.0604 43.5616 58.3478 43.0346 57.8223C42.5076 57.2968 41.793 57.0011 41.0475 57.0004ZM17.3725 54.6991C17.3731 54.2558 17.55 53.8309 17.8645 53.5175C18.179 53.2041 18.6054 53.0278 19.05 53.0274H28.9409C29.3856 53.0278 29.8119 53.2041 30.1263 53.5175C30.4407 53.8309 30.6175 54.2558 30.618 54.6991V57.0004H17.3725V54.6991ZM5.69967 59.8034C5.69967 59.4533 5.83913 59.1174 6.0874 58.8697C6.33568 58.622 6.67246 58.4827 7.02374 58.4823H41.0496C41.4006 58.4827 41.7371 58.6218 41.9854 58.8691C42.2336 59.1165 42.3732 59.4519 42.3737 59.8017V67.6283L41.5441 67.8378C41.5407 67.8378 41.5373 67.8378 41.5339 67.8378C35.7093 69.3092 32.4436 70.1341 26.619 71.6055V71.1084C26.6185 70.6366 26.4305 70.1843 26.0961 69.8505C25.7617 69.5166 25.3081 69.3286 24.8349 69.3275H23.1565C22.6828 69.3279 22.2286 69.5157 21.8936 69.8496C21.5587 70.1835 21.3703 70.6362 21.3698 71.1084V71.5813L6.53863 67.84L5.69967 67.6283V59.8034ZM22.8566 72.5332V71.1084C22.8567 71.0291 22.8884 70.9531 22.9446 70.8971C23.0008 70.8411 23.077 70.8095 23.1565 70.8094H24.8349C24.9144 70.8095 24.9906 70.8411 25.0468 70.8971C25.103 70.9531 25.1347 71.0291 25.1348 71.1084V74.7866C25.1347 74.8659 25.103 74.9419 25.0468 74.9979C24.9906 75.0539 24.9144 75.0855 24.8349 75.0856H23.1565C23.077 75.0855 23.0008 75.0539 22.9446 74.9979C22.8884 74.9419 22.8567 74.8659 22.8566 74.7866V72.5332ZM39.6516 84.8548H8.41961C8.06993 84.8543 7.73471 84.7157 7.48745 84.4692C7.24019 84.2227 7.10108 83.8886 7.10063 83.54V69.5104L20.8456 72.9778L21.3698 73.1103V74.7866C21.3697 74.8368 21.3748 74.8869 21.3851 74.9361C21.422 75.3797 21.6244 75.7933 21.9524 76.0954C22.2803 76.3974 22.71 76.5659 23.1565 76.5675H24.8349C25.2814 76.5659 25.711 76.3974 26.039 76.0954C26.367 75.7933 26.5694 75.3797 26.6063 74.9361C26.6157 74.8868 26.6199 74.8368 26.619 74.7866V73.1327L39.8844 69.7818L40.9706 69.5074V83.5396C40.9702 83.8882 40.831 84.2223 40.5838 84.4688C40.3365 84.7152 40.0013 84.8543 39.6516 84.8548Z" fill="#650C0F"/>
<path d="M39.6516 84.8548H8.41961C8.06993 84.8543 7.73471 84.7157 7.48745 84.4692C7.24019 84.2227 7.10108 83.8886 7.10063 83.54V69.5104L20.8456 72.9778L21.3698 73.1103V74.7866C21.3697 74.8368 21.3748 74.8869 21.3851 74.9361C21.422 75.3797 21.6244 75.7933 21.9524 76.0954C22.2803 76.3974 22.71 76.5659 23.1565 76.5675H24.8349C25.2814 76.5659 25.711 76.3974 26.039 76.0954C26.367 75.7933 26.5694 75.3797 26.6063 74.9361C26.6157 74.8868 26.6199 74.8368 26.619 74.7866V73.1327L39.8844 69.7818L40.9706 69.5074V83.5396C40.9702 83.8882 40.831 84.2223 40.5838 84.4688C40.3365 84.7152 40.0013 84.8543 39.6516 84.8548Z" fill="white"/>
<path d="M5.69967 59.8034C5.69967 59.4533 5.83913 59.1174 6.0874 58.8697C6.33568 58.622 6.67246 58.4827 7.02374 58.4823H41.0496C41.4006 58.4827 41.7371 58.6218 41.9854 58.8691C42.2336 59.1165 42.3732 59.4519 42.3737 59.8017V67.6283L41.5441 67.8378H41.5339C35.7093 69.3092 32.4436 70.1341 26.619 71.6055V71.1084C26.6185 70.6366 26.4305 70.1843 26.0961 69.8505C25.7617 69.5166 25.3081 69.3286 24.8349 69.3275H23.1565C22.6828 69.3279 22.2286 69.5157 21.8936 69.8496C21.5587 70.1835 21.3703 70.6362 21.3698 71.1084V71.5813L6.53863 67.84L5.69967 67.6283V59.8034Z" fill="white"/>
<path d="M22.8566 72.5332V71.1084C22.8567 71.0291 22.8884 70.9531 22.9446 70.8971C23.0008 70.8411 23.077 70.8095 23.1565 70.8094H24.8349C24.9144 70.8095 24.9906 70.8411 25.0468 70.8971C25.103 70.9531 25.1347 71.0291 25.1348 71.1084V74.7866C25.1347 74.8659 25.103 74.9419 25.0468 74.9979C24.9906 75.0539 24.9144 75.0855 24.8349 75.0856H23.1565C23.077 75.0855 23.0008 75.0539 22.9446 74.9979C22.8884 74.9419 22.8567 74.8659 22.8566 74.7866V72.5332Z" fill="#CF9EAA"/>
<defs>
<linearGradient id="paint0_linear_6787_1637" x1="53.6001" y1="45.7079" x2="57.1724" y2="-12.9212" gradientUnits="userSpaceOnUse">
<stop stop-color="#F5A425"/>
<stop offset="1" stop-color="#F5A425" stop-opacity="0"/>
</linearGradient>
</defs>
</svg>
