<svg width="856" height="856" viewBox="0 0 856 856" fill="none" xmlns="http://www.w3.org/2000/svg">
<circle cx="428" cy="428" r="409.5" stroke="#650C0F" stroke-width="3"/>
<circle cx="428" cy="428" r="319.5" stroke="#650C0F" stroke-width="3"/>
<circle cx="428" cy="428" r="423" stroke="#650C0F" stroke-width="8"/>
<circle cx="428" cy="428" r="307" stroke="#650C0F" stroke-width="8"/>
<path opacity="0.99" fill-rule="evenodd" clip-rule="evenodd" d="M390.5 32C378.9 33 369.4 33.8 369.2 33.9C369.1 33.9 369 34.7 369 35.5C369 36.5 370.6 37.4 373.5 38C376 38.5 378.2 39.3 378.4 39.8C378.7 40.2 379.8 52.6 381 67.5C382.7 89.7 382.9 94.7 381.8 95.8C381.1 96.5 379 97.3 377.3 97.5C374.8 97.9 374 98.5 374 100C374 101.8 374.5 102 379.3 101.5C382.1 101.2 389.4 100.6 395.5 100C401.6 99.5 411.4 98.8 417.5 98.4C423.6 98.1 429 97.5 429.7 97.2C430.5 96.7 430.7 93.8 430.2 86.7C429.7 79.5 429.2 77 428.2 77.2C427.5 77.4 425.8 80.2 424.5 83.5C423.1 86.8 420.9 90.5 419.5 91.8C418.1 93 415.1 94.3 412.8 94.6C410.4 94.9 405.6 95 402 94.8C396.2 94.5 395.4 94.2 394.3 92C393.6 90.6 392.8 84.5 392.4 78.5L391.7 67.5C402.2 66.2 404 66.3 405.8 67.5C407 68.3 408.8 70.8 409.8 73C410.9 75.6 412.1 77 413.3 77C414.7 77 414.9 76.3 414.5 73.2C414.3 71.2 413.8 65.1 413.5 59.7C413.1 51.3 412.8 50 411.3 50C410 50 409.1 51.3 408.3 54.5C407.5 57.1 406.1 59.6 404.8 60.4C403.5 61.2 400 62.1 397 62.4L391.5 63.1C390.3 49.5 389.7 43.5 389.4 41L388.9 36.5C397.1 35.4 401.6 35 404.3 35C407.2 35 410 35.7 411.8 36.8C413.3 37.9 415.5 40.3 416.8 42.3C418.1 44.6 419.8 46 421 46C422.6 46 422.9 45.5 422.5 43.7C422.2 42.5 422 38.9 422 35.7V30C413.9 30.2 402.1 31 390.5 32ZM311 47.7C295.9 52.4 283.3 56.4 283 56.6C282.7 56.9 283.7 60.8 285.1 65.3C287.1 71.9 288 73.5 289.6 73.5C291.1 73.5 291.6 72.6 292.1 68.5C292.4 65.8 293.4 62 294.4 60.3C295.6 57.8 297.3 56.5 301.3 55.1C304.1 54 306.8 53.5 307.1 53.8C307.4 54.2 311.4 66.7 315.9 81.5C323.8 107.4 324 108.6 322.3 110.3C321.3 111.3 319.2 112.6 317.7 113.3C316.2 114 314.9 115.3 315 116.3C315 117.2 315.6 117.8 316.3 117.7C316.9 117.5 323.9 115.3 331.8 112.9C343.1 109.4 346 108.1 346 106.8C346 105.2 345.3 105.1 341.3 105.6C337.5 106.1 336.2 105.9 335 104.5C334.2 103.6 329.9 91 325.4 76.6C321 62.3 317.5 50.4 317.7 50.2C318 50 320.5 49.2 323.3 48.5C328 47.2 328.9 47.3 331.9 48.8C333.8 49.7 336.8 52.2 338.7 54.2C341 56.9 342.5 57.8 343.6 57.2C344.4 56.8 344.9 55.9 344.5 55C344.2 54.2 343.1 50.2 342.1 46.2C341.1 42.3 339.9 39 339.4 39.1C338.9 39.1 326.1 43 311 47.7ZM518.5 42C516.3 42.4 512.7 43.6 510.6 44.6C508.4 45.7 504.6 48.3 502.2 50.5C499.8 52.7 496.5 57.2 494.9 60.5C493.3 63.8 491.4 69.4 490.8 73C489.8 78.1 489.9 80.9 490.9 86C491.6 89.6 493.2 94.3 494.5 96.5C495.7 98.7 498.6 102.2 500.9 104.2C503.1 106.3 507.1 109 509.8 110.2C513.3 111.8 516.5 112.4 522.5 112.4C529.2 112.5 531.4 112.1 536 109.8C539 108.4 543.5 105 546 102.3C548.4 99.7 551.5 95 552.9 92C554.9 87.6 555.5 84.4 555.9 76.5C556.2 67.5 556 66 553.8 61C552.5 58 549.8 53.8 547.9 51.7C546 49.5 541.8 46.5 538.5 45C535.2 43.4 530.3 41.9 527.5 41.6C524.8 41.4 520.7 41.5 518.5 42ZM519.5 47.8C522.4 46.4 524.8 46.1 528.5 46.5C531.4 46.8 535.1 48.1 537.3 49.5C539.3 50.9 541.9 53.8 543 56C544.1 58.2 545.3 62.4 545.6 65.3C545.9 68.4 545.6 73.3 544.7 77.5C543.9 81.3 542.3 87 541.1 90C540 93 537.4 97.5 535.3 99.9C533.2 102.4 529.7 105.2 527.5 106.2C525.3 107.1 522 108 520.2 108C518.5 108 515.3 107.3 513.2 106.4C511.2 105.6 508.2 103.7 506.7 102.2C505.2 100.7 503.2 97.2 502.4 94.5C501.6 91.7 501 87.5 501 85C501 82.5 501.7 77.7 502.5 74.2C503.3 70.8 505 65.6 506.3 62.8C507.6 59.9 510.2 55.7 512.1 53.6C514 51.4 517.3 48.8 519.5 47.8ZM593.4 67.2C593.1 67.9 594.2 70 595.9 71.8C597.6 73.5 599 75.6 599 76.3C599 76.9 593.8 87.2 587.4 99C581.1 110.8 575.2 121.5 574.4 122.8C573.6 124.1 572 125 570.5 125C569.1 125 567 124.5 565.7 123.9C564 123.1 563.3 123.1 562.8 124.2C562.4 124.9 562.4 125.8 562.8 126.2C563.2 126.6 568.9 129.8 575.5 133.4C584.9 138.5 587.8 139.6 588.8 138.7C589.9 137.7 589.5 136.9 586.6 134.3C584.6 132.5 583 130.7 583 130.3C583 129.8 585.5 124.8 588.6 119C591.7 113.2 594.5 108.1 594.8 107.6C595.2 107.2 597.9 108.1 600.9 109.6C603.8 111.2 606.7 113.4 607.2 114.5C607.8 115.6 608.1 118.7 607.9 121.3C607.6 124.4 607.9 126.5 608.7 127.1C609.7 127.7 611 126.2 613.6 121.3C615.7 117.5 618.6 112.1 620.1 109.3C622.5 104.9 622.7 103.9 621.5 103.5C620.7 103.2 618.8 104 617.2 105.3C615.7 106.6 613.4 108 612 108.4C610.1 109 607.9 108.4 603.2 106.1L597 103C606.5 85.6 609.5 80.2 609.9 79.8C610.2 79.4 614.1 81.1 618.5 83.6C622.9 86.1 627.2 88.8 628 89.6C628.9 90.5 629.7 93.8 630 98.3C630.4 103.6 630.9 105.6 632 105.8C633 106 634.8 103.6 637.3 98.8C639.5 94.8 640.8 91.2 640.3 90.9C639.9 90.5 629.4 84.8 617 78.1C604.6 71.4 594.4 66 594.2 66C594.1 66 593.7 66.6 593.4 67.3V67.2ZM245.2 73.7C237.7 78.2 234.1 80.9 234.3 81.9C234.5 82.7 235.3 83.2 236.1 83C236.9 82.8 239.5 82.4 242 82.1C246.2 81.6 246.7 81.8 249.2 85C250.6 86.9 255 93.8 259 100.4C263 107 267.1 114.1 268.1 116.2C269.2 118.3 270 122 270 124.7C270 127.6 269.3 130.6 268 132.7C266.9 134.4 264.1 137.1 261.8 138.7C259 140.5 256 141.5 252.6 141.7C248.5 142 246.8 141.6 244.1 139.7C241.6 138.1 237.4 131.9 229.3 118.4C223.1 108 218 98.4 218 97.2C218 95.9 219.1 94 220.5 92.9C221.9 91.8 222.8 90.2 222.5 89.4C222.2 88.6 221.6 88 221.2 88.2C220.8 88.3 215.1 91.4 208.7 95.2C200.4 100 197.1 102.3 197.5 103.4C197.9 104.6 199 104.8 202.7 104.3C206.6 103.8 207.8 104 209.1 105.5C210 106.6 214.9 114.6 220 123.4C225.1 132.2 230.5 141 231.9 142.8C233.3 144.7 236.5 147.2 239 148.2C242.3 149.6 244.9 150 248.5 149.7C251.2 149.4 255.5 148.3 258 147.2C260.5 146.1 264.5 143.5 266.9 141.3C269.3 139.2 272 135.8 273 133.9C274 132 275.1 128.8 275.5 126.9C275.9 124.8 275.7 121.8 274.9 119.4C274.2 117.2 270.1 109.3 265.7 101.9C261.3 94.5 256.7 86.2 255.4 83.4C254.1 80.7 253 77.8 253 77.2C253 76.5 254.3 74.3 256 72.4C257.6 70.5 258.8 68.5 258.5 67.9C258.2 67.4 257.7 66.9 257.2 67C256.8 67 251.4 70 245.2 73.7ZM152.5 141C140.9 152 131.4 161.3 131.2 161.7C131.1 162.1 133.9 165.3 137.5 168.9C141.9 173.4 144.3 175.1 145.1 174.4C145.8 173.7 145.7 172 144.6 168.7C143.7 166 143 162.2 143 160.2C143 157.1 143.7 155.7 147.2 152.2L151.5 147.9C182.2 180.1 191 190.1 191 190.9C191 191.7 189.7 193.9 188.2 195.7C186.1 198.4 185.8 199.3 186.7 200.2C187.7 201.1 188.8 200.6 191.7 197.9C193.8 196 199 191.1 203.2 186.9C208.8 181.5 210.7 179.1 210 178.2C209.2 177.2 208 177.5 204.5 179.4C201.8 180.9 199.4 181.6 198.5 181.2C197.7 180.7 188.5 171.4 178 160.4L158.9 140.4C166.2 133.6 167.8 132.9 171 132.9C173.2 132.9 177.1 133.6 179.7 134.5C183.1 135.6 184.8 135.7 185.5 134.9C186.2 134.2 184.5 131.8 180 127.4L173.5 120.9L152.5 141ZM696.5 134.9C696.2 135.5 696.8 138.2 697.7 140.9C699.4 145.7 699.4 146 697.6 149.2C696.6 151 689.1 158.5 680.8 165.9C672.6 173.4 664.3 180.2 662.4 181.2C659.1 182.9 658.9 182.9 654.7 180.5C651.4 178.6 650.2 178.3 649.3 179.2C648.3 180.2 648.9 181.4 652.2 184.9C654.5 187.4 658.8 192 661.7 195.2C665.8 199.7 667.3 200.7 668.5 199.9C669.8 199.1 669.7 198.5 668 195.7C666.9 193.9 666 191.4 666 190.2C666 189 666.6 186.9 667.4 185.7C668.2 184.5 675.6 177.3 683.9 169.7C692.2 162.1 699 156.5 699 157.2C699 157.9 696.1 173.1 692.5 190.9C686.7 219.7 686.1 223.6 687.4 224.9C688.8 226.3 689.2 226.2 691.1 224.4C692.3 223.3 701.7 214.9 711.9 205.6C722.1 196.3 732 188 733.8 187.1C737 185.5 737.3 185.5 741.3 187.8C744.2 189.4 745.8 189.8 746.5 189.1C747.2 188.4 746.2 186.6 743.6 183.7C741.4 181.4 737.2 176.9 734.3 173.7C730.2 169.2 728.7 168.2 727.5 168.9C726.2 169.8 726.2 170.4 728 173.2C729.1 175 730 177.3 730 178.4C730 179.5 729 181.9 727.7 183.6C726.5 185.4 719.8 192 712.7 198.4C705.7 204.7 699.8 209.8 699.5 209.7C699.3 209.6 701.8 195.7 705.2 178.9L711.3 148.4C701.4 137.2 698.2 134 697.8 134C697.4 133.9 696.8 134.4 696.5 134.9ZM104.9 195.5C99.8 202.4 95.7 208.2 95.8 208.5C95.9 208.7 96.7 209.2 97.5 209.4C98.3 209.7 100.3 208.8 102 207.4C103.6 206.1 105.9 204.9 107 204.9C108.1 204.9 118.5 211.8 130.1 220.2C141.7 228.6 151.5 236.1 151.8 236.9C152.1 237.8 151.8 239.8 151.1 241.4C150.4 243.1 149.7 245.1 149.7 245.8C149.6 246.6 149.9 247.4 150.5 247.6C151 247.8 155.4 242.6 160.2 236C165.1 229.4 169 223.5 169 222.9C169 222.4 168.4 221.7 167.7 221.5C167.1 221.3 165.1 222.4 163.5 224C161.8 225.7 159.8 227 159 227C158.2 227 148 220.2 136.5 211.9C124.9 203.6 114.9 196.1 114.3 195.2C113.3 193.8 113.5 192.6 115 189.2C116.7 185.7 116.8 184.8 115.6 183.9C114.6 183.2 112.2 185.8 104.9 195.5ZM762.7 214.7C762.3 215.1 762.3 217.1 762.7 219.1C763.3 221.8 763.1 223.2 762 224.4C761.2 225.4 752.6 230.2 743 235.2C733.4 240.2 723.9 245.4 722 246.8C720.2 248.3 717.8 251.2 716.8 253.4C715.8 255.6 715 259.6 715 262.2C715 264.8 716 269.5 717.2 272.7C718.4 275.9 721.2 280.4 723.4 282.8C725.7 285.3 729.3 288.1 731.5 289.1C733.7 290.1 737.5 290.9 740 290.9C743.8 291 747.7 289.3 764.2 281C775.1 275.5 785 271 786.2 271C787.5 271 790 272.4 791.7 274.2C794 276.4 795.3 277.1 796.1 276.4C796.9 275.7 795.4 272.1 791.1 263.7C787.4 256.6 784.4 251.9 783.5 251.9C782.3 251.9 782.1 253 782.6 257.7C783.3 263.3 783.2 263.5 779.9 266.1C778 267.6 769.6 272.4 761.2 276.9C752.9 281.3 744.8 285.2 743.2 285.6C741.7 285.9 738.8 285.9 736.7 285.6C734.7 285.2 731.6 283.7 729.8 282.2C728.1 280.7 725.6 277.2 724.3 274.4C723.1 271.7 722 268.2 722 266.7C722 265.2 722.6 262.7 723.4 261.2C724.2 259.7 725.9 257.5 727.1 256.3C728.4 255.2 737.8 249.9 748 244.5C758.2 239.2 767.4 234.9 768.5 234.9C769.6 234.9 771.6 236.3 773 238C775 240.6 775.7 240.9 776.7 239.8C777.6 238.7 776.6 236 771.5 226.4C768 219.8 764.8 214.3 764.3 214.2C763.8 214 763 214.2 762.7 214.7ZM76.6 240.2C74.2 245.3 68.6 257.2 64.1 266.6C59.7 276 56 284 56 284.3C56 284.7 59.7 286.8 64.2 289C70.6 292.2 72.7 292.8 73.2 291.8C73.6 291 74 290.2 74 289.9C74 289.7 72.7 288.1 71 286.4C69.3 284.8 67.2 281.6 66.4 279.4C64.9 275.6 64.9 275.2 67.2 270.2C68.4 267.2 69.7 264.9 70 264.9C70.3 264.9 81.5 270.1 95 276.5C108.5 282.9 120.1 288.6 120.8 289.3C121.5 289.9 122.1 291.5 122 292.7C122 293.9 121.4 296.1 120.7 297.5C119.7 299.7 119.7 300.2 121 301C121.8 301.5 122.8 301.5 123.1 301.2C123.5 300.8 126.8 294.3 130.4 286.7C136.2 274.6 136.8 272.9 135.2 272.3C134 271.8 132.7 272.6 130.7 275.3C129.2 277.3 127.2 279 126.2 279C125.3 279 113.5 273.7 100 267.4C86.5 261 75.2 255.5 74.8 255.1C74.4 254.7 75.3 252.2 76.8 249.4C78.8 245.7 80.4 244.2 83 243.3C84.9 242.6 88.9 242 91.7 242C95 242 97.1 241.5 97.4 240.7C97.6 239.9 94.4 237.7 89.4 235.2L80.9 230.9L76.6 240.2ZM805.1 310.4C805 314.1 804.6 315.2 802.8 316C801.5 316.5 789.4 319.7 775.8 323C762.2 326.3 750.5 328.8 749.8 328.5C749.1 328.2 747.7 326.4 746.8 324.5C745.8 322.6 744.6 321 744 321C743.5 321 742.8 321.4 742.5 322C742.2 322.5 743.4 328.5 745.1 335.2C746.7 342 748.3 348 748.6 348.7C748.8 349.5 749.7 349.7 750.6 349.2C751.8 348.7 752.1 347.7 751.6 345.5C751.2 343.7 751.5 341.8 752.3 340.8C753 339.8 757.7 338 763.8 336.5C769.4 335.1 774.6 334 775.3 334C776 334 776.9 335.4 777.3 337.2C777.9 340.1 777.5 341.1 773.3 346C770.7 349 765.1 355.3 760.9 360L753.1 368.5C756.7 384.7 757.3 386 759 386C760.6 386 760.9 385.5 760.5 383.5C760.2 382.1 760.8 379.1 761.9 376.7C762.9 374.4 767.9 367.5 773 361.5C778.1 355.4 782.6 350.4 782.9 350.3C783.2 350.2 784.8 351.9 786.3 354C787.8 356.2 790.8 358.9 793 360C795.2 361.1 798.5 362 800.3 362C802.1 362 805.4 361.1 807.8 360C810.1 358.9 812.9 356.6 814 354.7C815.6 352.2 816 349.8 815.9 344C815.9 338.9 814.7 331.6 812.2 321.5C809.4 310.3 808.1 306.4 806.8 306.2C805.5 305.9 805.2 306.7 805.1 310.4ZM793.2 329.3C800 327.6 806.3 326.1 807.3 326.1C808.6 326 809.3 327.2 810 330.5C810.6 333 811 336.4 811.1 338.2C811.1 340 810.2 342.7 809.1 344.2C807.9 345.7 805.7 347.7 804 348.5C802.4 349.3 798.8 350 796 350C792 350 790.4 349.5 787.9 347.2C786.2 345.7 784.2 343.4 783.5 342C782.8 340.6 781.9 337.9 780.9 332.5L793.2 329.3ZM45.2 316.8C44.9 317.7 45.2 319.2 45.9 320.2C46.8 321.6 46.5 322.5 44.4 325.2C43 327 41.1 330 40.4 331.9C39.6 333.9 39 337.8 39 340.7C39 343.6 39.6 347.4 40.3 349.2C41.1 351 43.3 353.9 45.3 355.7C47.4 357.5 50.9 359.4 53.3 360C55.6 360.6 58.9 360.8 60.5 360.4C62.2 360 65.2 358.7 67.3 357.3C69.3 356 73.4 351.4 76.4 347.2C79.3 342.9 83.2 338.2 84.9 336.7C87.3 334.6 89 333.9 92.5 333.9C95 333.9 98.4 334.6 100 335.4C101.7 336.3 103.5 337.8 104 338.9C104.6 340 105 342.7 105 344.9C105 347.1 104.5 350.2 103.9 351.7C103.3 353.2 101.9 355.5 100.7 356.8C99.5 358.1 96.7 360 94.5 361.2C92.3 362.3 88.2 363.5 85.3 363.8C81.6 364.3 79.9 364.9 79.5 366.2C79.2 367.1 79.6 368.1 80.3 368.4C80.9 368.6 86 369.7 91.5 370.8C99.3 372.4 101.7 372.6 102.2 371.7C102.6 371 103 370.2 103 369.9C103.1 369.7 102.4 368.9 101.5 368.2C100.2 367.1 100.3 366.6 102.4 363.7C103.8 361.9 105.9 358.2 107.1 355.4C108.6 352.1 109.3 348.5 109.3 344.4C109.3 340.3 108.7 337.2 107.3 334.4C106.1 332.2 104.1 329.4 102.9 328.2C101.6 327 98.8 325.3 96.8 324.5C94.7 323.6 91.2 322.9 89 322.9C86.8 322.9 83.8 323.6 82.3 324.4C80.7 325.1 77.9 327.5 75.9 329.6C74 331.7 70.1 336.6 67.3 340.4C64.5 344.3 61.1 348 59.6 348.7C58.2 349.4 55.2 349.9 53 349.9C50.1 349.9 48.3 349.3 46.5 347.4C45.1 346.1 43.7 343.7 43.4 342.2C43 340.7 43.2 337.9 43.8 335.9C44.4 334 46.3 331.1 48.2 329.4C50.3 327.4 53.4 325.9 56.8 325.1C59.6 324.5 63.1 323.9 64.5 323.9C65.9 323.9 67.3 323.2 67.6 322.3C67.9 321.4 68 320.5 67.8 320.4C67.7 320.2 62.6 319 56.6 317.6C46.7 315.4 45.6 315.4 45.2 316.8ZM30.5 387.6C30 388 29.7 394.3 29.8 401.6C30 413.6 30.2 414.9 31.8 414.9C33 415 33.9 413.7 34.6 410.7C35.5 407.5 36.5 406.1 38.6 405.2C40.7 404.2 47 404 61.5 404.2L81.4 404.4L30 440.9C30 458.3 30.3 460.9 31.3 460.9C31.9 460.9 33.4 458.8 34.5 456.3C35.8 453.2 37.5 451.1 39.5 450.2C42 448.9 46.2 448.8 64.5 449.2C79.6 449.6 87.4 450.2 89.3 451.1C91.5 452.1 92.4 453.5 93.1 456.7C93.8 460 94.5 460.9 96 460.9C97.9 460.9 98 460.3 98 446.9C98 434.3 97.8 432.9 96.3 432.9C95 432.9 94.1 434.3 93.3 437.4C92.5 440.2 91.2 442.4 89.8 443.1C88.5 443.8 83.1 444.4 77.5 444.5C72 444.5 62.2 444.3 55.7 444L44 443.4C91.3 409.5 98.6 403.8 98.8 402.1C98.9 400.9 98.9 399.9 98.8 399.8C98.6 399.7 85.5 399.3 69.5 399C49.4 398.6 39.8 398 38.3 397.2C36.8 396.4 35.7 394.4 35 391.4C34.4 388.9 33.4 386.9 32.7 386.9C31.9 386.9 31 387.2 30.5 387.6ZM757.2 400.4C756.8 401.3 757.2 402.6 758.3 403.7C760 405.3 760 405.7 758.4 410.4C757.5 413.2 756.7 418.4 756.6 421.9C756.6 427 757.1 429.5 759 433.3C760.4 436 763.2 439.6 765.3 441.3C768.6 444 770.2 444.5 775.8 444.8C780.6 445.1 783.4 444.7 785.8 443.6C787.5 442.7 790.2 440.2 791.8 438.2C793.3 436.1 796 430.3 797.9 425.4C799.8 420.5 802 415.4 802.9 414.1C803.8 412.7 805.7 411.1 807.3 410.3C808.8 409.6 811.5 408.9 813.3 409C815 409 817.5 409.8 818.6 410.7C819.8 411.7 821.3 413.4 821.9 414.7C822.5 415.9 823 418.5 823 420.4C823 422.4 822.4 425.2 821.6 426.7C820.8 428.2 819.4 430.2 818.4 431.2C817.3 432.1 813.8 434 810.5 435.4C806.2 437.1 804.4 438.4 804.3 439.9C804 441.7 804.5 441.9 809.8 441.9C812.9 441.9 817.9 441.6 820.8 441.2C824.4 440.7 826 440 826 438.9C826 438.1 825.5 436.9 824.8 436.2C823.8 435.2 823.8 434.5 824.8 432.4C825.4 431.1 826.5 427.9 827 425.4C827.7 422.4 827.7 419.4 827 416.2C826.4 413.6 824.8 409.7 823.5 407.7C822.1 405.6 819.2 403 817 401.9C814.8 400.8 811 399.9 808.5 399.9C806 399.9 802.5 400.5 800.8 401.3C799 402 796.4 403.9 795 405.5C793.6 407.1 791 412.3 789.2 416.9C787.4 421.6 785.2 427 784.2 428.8C783.2 430.8 780.9 433 778.5 434.2C775.6 435.6 773.4 436 770.5 435.6C768.1 435.2 765.5 434 764 432.4C761.8 430.2 761.5 429 761.5 423C761.5 416.8 761.8 415.7 764.6 412.3C766.5 409.9 770.2 407.2 774.3 405.2C778.2 403.3 781 401.3 781 400.4C781 399.2 779.1 398.9 769.5 398.9C760.2 398.9 757.8 399.2 757.2 400.4ZM756 464.7C756 465.1 755.1 471.1 754 477.9C752.9 484.8 752 491.2 752 492.2C752 493.1 752.7 493.9 753.5 493.9C754.3 493.9 755.5 492.7 756.1 491.2C756.7 489.7 757.9 487.6 758.8 486.7C760 485.4 761.4 485 763.5 485.4C765.2 485.7 773.7 487.1 782.5 488.4C791.3 489.8 801.4 491.4 805 492C808.6 492.6 812.3 493.3 813.3 493.5C814.5 493.8 815.2 495.4 815.8 499C816.2 501.9 817 504 817.8 504C818.4 503.9 819.2 502.9 819.5 501.7C819.7 500.4 820.7 494.5 821.5 488.4C822.4 482.4 823.3 476.6 823.6 475.7C823.867 474.5 823.433 473.9 822.3 473.9C821.2 473.9 819.7 475.5 818.5 477.9C817.4 480.2 815.9 482.2 815.3 482.5C814.6 482.7 808.7 482.1 802.3 481C795.8 479.9 784.2 478.1 776.5 476.9C765 475.1 762.2 474.4 760.7 472.6C759.6 471.2 759 469.3 759.3 467.2C759.5 464.6 759.2 463.9 757.8 463.9C756.8 463.9 756 464.3 756 464.7ZM98.1 481.1C98.1 483.5 97.5 486 96.8 486.7C96.1 487.3 83.8 490.2 69.5 492.9C55.2 495.7 42.9 497.8 42.3 497.5C41.6 497.2 40.3 495.2 39.4 493.2C38.5 491.1 37.7 489.3 37.6 489.2C37.6 489 36.8 489.2 36 489.4C34.7 489.9 34.9 492 37.3 504.7C38.9 512.8 40.3 519.6 40.3 519.7C40.4 519.8 41.3 519.7 42.3 519.4C43.6 519.1 44 517.9 44 514.7C43.9 512.3 44.5 509.9 45.2 509.3C45.9 508.6 58.2 505.8 72.5 503.1C89.3 499.8 99 498.4 100 498.9C100.8 499.4 102 501.3 102.6 503.1C103.2 504.9 104.4 506.5 105.3 506.7C106.7 506.9 106.9 506.3 106.5 503.2C106.2 501.1 104.9 494.5 103.7 488.4C102 480.1 101.1 477.4 99.8 477.1C98.5 476.9 98.2 477.6 98.1 481.1ZM744.6 523.6C741.1 533 740.1 536.7 741 537.4C741.8 538.1 743.1 537.2 745.6 534.2C748.4 530.7 749.6 529.9 752.5 529.9C754.4 529.9 759 531.1 762.8 532.5C766.5 533.9 774.2 536.7 780 538.8C785.8 540.9 791.4 543.1 792.5 543.7C794.3 544.7 794.2 544.8 791 545.7C789.1 546.3 774.7 550.4 759 554.9C743.3 559.4 729.9 563.7 729.2 564.3C728.5 564.9 728 566 728.2 566.8C728.4 567.5 739.5 572.3 753 577.3C766.5 582.4 779 587.3 780.8 588.2C782.5 589.2 784.5 590.8 785 591.9C785.6 593 785.9 595.6 785.8 597.7C785.6 600.3 785.9 601.4 786.9 601.4C787.8 601.4 790.1 596.7 793 588.9C795.6 582.1 797.6 576.1 797.4 575.7C797.2 575.3 796.4 574.9 795.8 574.9C795.1 574.9 793.4 576.6 792 578.5C790.6 580.5 788.4 582.3 787 582.6C785.6 582.9 783.4 582.9 782 582.5C780.6 582.2 772 579.1 762.8 575.7C753.6 572.2 746.6 569.1 747.3 568.8C748 568.5 761.6 564.5 777.5 559.9C793.5 555.4 806.6 551.6 806.7 551.6C806.9 551.5 808.5 547.4 810.4 542.4C813.2 535.1 813.6 533.3 812.4 532.7C811.467 532.167 809.7 533.233 807.1 535.9C804.2 538.9 802.4 539.9 800.1 539.9C798.4 539.9 787.9 536.5 776.8 532.4C765.6 528.3 755.5 523.9 754.2 522.7C752.3 520.9 751.9 519.5 752.1 515.9C752.3 512.6 752 511.4 750.8 511.1C749.7 510.9 748.1 514.3 744.6 523.6ZM121.5 558.5C121 558.8 121.2 560.7 121.9 562.7C122.7 564.8 123 567.2 122.6 568.2C122.3 569.2 112.6 574.5 98.3 581.5C85.2 587.8 73.7 593 72.8 593C71.8 592.9 69.8 591.4 68.3 589.4C66.5 587.2 65 586.2 64.2 586.7C63.3 587.2 64.6 591 69.5 601.2C74.3 611.4 76.4 614.8 77.5 614.4C78.7 614 78.9 612.9 78.3 608.5L77.5 603.1C114.7 585.1 126.5 579.9 127.8 579.9C129.2 579.9 130.8 581.2 132.3 583.4C133.5 585.3 134.8 586.9 135.3 586.9C135.7 586.9 136.3 586.4 136.6 585.7C137 585 134.4 578.5 130.9 571.2C127.4 563.9 124 557.9 123.4 557.9C122.8 557.9 121.9 558.2 121.5 558.5ZM716 603.2C713.5 603.9 709.5 605.6 707 607.1C704.5 608.5 701.2 611.2 699.6 613C698.1 614.9 695.7 618.2 694.4 620.4C693.1 622.6 691.2 627.1 690 630.4C688.9 633.7 688 637.4 688 638.7C688 640.4 689.9 642.2 695.5 645.9C699.6 648.7 703.2 651.8 703.5 652.9C703.8 654 703.3 656.3 702.5 657.9C701.2 660.6 701.2 661.1 702.5 662.2C703.4 662.9 704.2 663.2 704.4 662.9C704.5 662.7 708.3 657 712.8 650.4C719.4 640.8 720.7 638.2 719.7 637.1C718.7 636.1 717.8 636.5 715 639.5C712.2 642.4 711 643 709 642.6C707.6 642.2 703.9 639.9 700.8 637.5C695.4 633.2 695 632.7 695.6 629.7C695.9 627.9 697.3 624.5 698.6 622.2C699.9 619.8 702.9 616.7 705.2 615.2C708.9 612.8 710.3 612.4 717.5 612.4C724.8 612.4 726.3 612.8 732.5 615.9C736.2 617.9 741.9 621.9 745 624.9C748.1 628 751.6 632.6 752.8 635.2C754 637.8 755 641.8 755 644.2C755 646.6 754 650.4 752.7 652.9C751.5 655.3 749 658.5 747.1 659.9C744.7 661.6 742 662.6 738.6 662.8C735.6 663 731.3 662.5 728.3 661.6C725.4 660.7 722.6 660.2 722 660.4C721.5 660.7 721 661.5 721 662.2C720.9 662.9 725.2 666.2 730.5 669.7C735.9 673.3 740.5 675.6 741.1 675.2C741.7 674.8 742.1 673.4 741.9 672.1C741.6 670.5 742.3 669.4 744.5 668C746.2 667 749.5 663.9 752 661.3C754.4 658.6 757.3 654.4 758.4 651.9C760 648.5 760.5 645.3 760.5 638.9C760.5 631.4 760.1 629.6 757.4 623.9C755.4 619.9 752.4 615.8 749.4 613C746.7 610.6 741.8 607.4 738.5 605.8C735 604.2 730 602.8 726.5 602.5C723 602.2 718.6 602.5 716 603.2ZM133.6 608.7C131.9 609.1 130.7 609.8 130.8 610.2C130.9 610.6 131 611.4 131 611.9C131 612.5 132.7 612.7 135.3 612.4C137.9 612 141.4 612.5 144.5 613.5C147.3 614.4 151 616.5 152.8 618.3C154.6 620 156.8 623.5 157.7 625.9C158.8 628.9 159.1 632 158.8 634.9C158.5 637.4 157.4 641 156.5 642.9C155.5 644.9 153.5 648 152.1 649.8C150.7 651.7 146.8 655.2 143.5 657.5C140.2 659.9 134.9 662.8 131.8 663.9C128.6 665 124.1 665.9 121.8 665.9C119.4 665.9 115.6 664.9 113.1 663.7C110.6 662.4 107.6 659.9 106.3 657.9C104.7 655.5 104 653 104 649.7C104 646.8 104.9 643.2 106.1 640.7C107.3 638.3 109.4 635.1 110.7 633.4C112.8 630.8 112.9 630.3 111.5 629.2C110.3 628.1 108.4 629.1 100.5 634.9C92.4 640.9 91.2 642.2 92.3 643.5C92.9 644.3 94.3 645 95.3 645C96.5 644.9 97.3 646.2 98.1 649.7C98.7 652.3 99.8 655.7 100.6 657.2C101.4 658.7 103.7 661.8 105.9 664.2C108.2 666.8 112.2 669.6 116.1 671.3C121.9 673.9 123.3 674.2 130.5 673.8C136.4 673.5 139.9 672.7 144 670.7C147 669.3 152.1 665.7 155.4 662.8C159.4 659.1 162.2 655.4 164.3 650.9C166.8 645.7 167.4 643.2 167.4 637.9C167.3 633.2 166.7 629.9 164.9 625.9C163.5 622.9 160.7 618.7 158.7 616.7C156.7 614.6 153.1 612 150.8 610.8C148.4 609.6 144.3 608.6 141.5 608.4C138.8 608.2 135.2 608.4 133.6 608.7ZM587 722.7C580.2 725.7 574.7 728.5 574.8 728.8C574.9 729.2 575.4 730 575.8 730.6C576.3 731.5 577.6 731.6 581 730.8C585.3 729.8 585.6 729.8 588.2 732.6C589.7 734.1 594.5 743.2 599 752.7C603.4 762.2 606.8 769.9 606.5 769.9C606.2 769.9 593.9 763.2 579 754.9C564.2 746.7 551.4 739.9 550.8 739.9C550.1 739.9 545.9 741.5 541.5 743.5C537.1 745.5 533.4 747.2 533.2 747.3C533.1 747.4 533.2 748.1 533.5 748.9C533.9 750.1 535.2 750.3 539.4 749.9C544.4 749.5 545 749.6 547.6 752.6C549.2 754.3 554.4 764.4 559.2 775.1C564 785.7 568 795.6 568 796.9C568 798.5 566.6 800.8 564.5 802.9C562.4 805.1 561.4 806.9 561.8 807.7C562.3 808.7 565.7 807.5 575.3 803.2C582.3 800 587.9 797 587.7 796.4C587.5 795.9 584.7 795.4 581.6 795.4C576.4 795.4 575.6 795.1 573.4 792.4C572.1 790.8 567.4 781.4 563 771.7C558.6 761.9 555.1 753.8 555.3 753.6C555.4 753.4 568.8 760.6 585 769.6C603.2 779.7 615.2 785.8 616.3 785.4C617.2 785.2 618 784.5 618 783.9C618 783.4 612.9 771.6 606.6 757.7C600.3 743.8 594.9 731.2 594.6 729.7C594.1 727.5 594.7 726.3 597.5 723.4C599.4 721.5 601 719.5 601.1 719C601.2 718.5 600.8 717.8 600.3 717.6C599.7 717.3 593.8 719.6 587 722.7ZM256.5 725.5C254.3 726.4 250.5 728.5 248 730.4C245.5 732.2 241.7 736.3 239.6 739.5C237.4 742.8 234.8 747.9 233.8 750.9C232.8 754 232 759.1 232 762.4C232 765.7 232.8 770.7 233.7 773.4C234.7 776.3 237.4 780.6 240.1 783.4C242.8 786.4 246.8 789.4 250.1 790.9C254 792.6 257.3 793.3 262 793.3C266.4 793.3 269.7 792.7 272 791.5C273.9 790.5 276.7 788.8 278.3 787.8C280.5 786.3 280.8 785.6 280 783.9C279 782 278.9 782 275.3 784.5C273.2 785.9 269.7 787.5 267.5 788.1C265.3 788.7 261.9 788.9 260 788.5C258.1 788.2 254.5 786.7 252.1 785.2C249.5 783.6 246.8 780.8 245.6 778.4C243.9 775.2 243.5 772.6 243.5 765.4C243.5 757 243.7 756 247.2 749.4C249.3 745.6 252.4 740.6 254.3 738.4C256.1 736.2 260.1 733.2 263.1 731.7C266.1 730.2 270.1 728.9 272 728.9C273.9 729 277.4 729.9 279.8 731C282.1 732.1 284.9 734.4 286 736.2C287.1 738 288.3 741.5 288.6 743.9C289 746.4 288.8 750.7 288.2 753.4C287.3 757.7 287.4 758.6 288.8 759.7C290.3 760.9 291.1 759.8 296 749.9C300.6 740.6 301.3 738.7 300 737.9C299.2 737.4 297.6 737.3 296.5 737.6C295.1 737.9 293.8 737.2 291.9 734.8C290.4 732.9 286.6 729.9 283.4 728C278.1 724.8 276.7 724.4 269 724.2C263.2 724 259.2 724.4 256.5 725.5ZM316.4 745.2C316 745.9 316.4 746.8 317.4 747.4C318.4 748 320.3 749.2 321.6 750.2C322.9 751.1 324 752.9 324 754.2C324 755.4 320.8 767 316.9 779.9C313 792.9 309.4 804.2 308.9 805.2C308.2 806.6 307.1 806.8 303 806.4C298.7 806 298 806.2 298.3 807.7C298.5 809 301.9 810.4 312.5 813.6C320.2 815.9 326.8 817.5 327.3 817.3C327.7 817.1 328 816.4 328 815.7C328 815 326.3 813.5 324.3 812.4C322.2 811.3 320.4 809.6 320.2 808.4C320.1 807.3 323.1 795.6 327.1 782.4C331 769.2 334.7 757.6 335.4 756.5C336.3 754.9 337.2 754.7 341.3 755.3C345.4 755.9 346 755.7 346.2 754.1C346.4 752.5 344.2 751.6 332.2 748.1C324.4 745.8 317.8 743.9 317.6 743.9C317.3 743.9 316.8 744.5 316.4 745.2ZM487.5 755.3C484.8 756 480.9 757.4 479 758.4C477.1 759.5 473.6 762.4 471.2 764.9C468.8 767.4 466 771.7 465 774.4C464 777.2 462.9 781.5 462.5 783.9C462.1 786.4 462.4 791.4 463 794.9C463.6 798.5 465.2 803.7 466.4 806.4C467.7 809.2 470.5 813.4 472.6 815.8C474.8 818.2 479 821.3 482 822.8C486.6 825 488.9 825.4 496 825.4C503.2 825.4 505.4 825 510 822.8C513.2 821.3 517.3 818.1 519.8 815.3C522.2 812.6 525 808 526.1 804.9C527.8 800.5 528.1 797.7 527.8 789.9C527.5 781.8 527 779.5 524.3 773.9C522.3 769.6 519.4 765.8 515.9 762.6C512.7 759.8 508.6 757.3 506 756.5C503.5 755.7 499.5 754.9 497 754.6C494.5 754.3 490.3 754.6 487.5 755.3ZM485.1 760.8C487.5 759.8 491.1 759 493 758.9C494.9 758.9 498.5 759.9 501 761.2C503.5 762.5 506.9 765.4 508.8 767.9C510.7 770.4 513.1 775.4 514.2 778.9C515.3 782.5 516.4 789 516.8 793.4C517.1 798.3 516.9 803.2 516.2 805.9C515.5 808.4 513.4 812.3 511.5 814.7C509.3 817.4 506.6 819.4 504.3 820.1C502.2 820.7 498.2 821 495.4 820.8C491.5 820.5 489.3 819.7 486.4 817.3C484.2 815.6 481.3 811.8 479.8 808.8C478.3 805.9 476.3 800.7 475.5 797.4C474.7 794.1 474 788.1 474 783.9C474 779.8 474.5 774.9 475.1 772.9C475.8 771 477.3 767.9 478.5 766.1C479.8 764.1 482.6 761.9 485.1 760.8ZM410 763.7C410 764.8 411.1 765.7 413.2 766.2C415 766.7 417.3 767.8 418.3 768.7C419.9 770.3 420.1 772.7 420 795.7C420 810.1 419.6 822 419 823.4C418.2 825.5 417.1 826 413.5 826.4C410.4 826.8 409 827.4 409 828.4C409 829.3 409.5 830.2 410 830.4C410.6 830.7 417.5 830.6 425.5 830.2C436.1 829.6 440 829.1 440 828.2C440 827.5 438.3 826.6 436.3 826.2C434.2 825.8 431.9 824.9 431.3 824.2C430.3 823.3 430 816.4 430 796.9C430 781.6 430.4 770.1 431 768.9C431.6 767.7 433.5 766.7 436 766.2C438.9 765.6 440 764.9 440 763.7C440 762.1 438.6 761.9 425 761.9C411.4 761.9 410 762.1 410 763.7ZM358.1 796.3C358.1 797.8 357.8 799.5 357.5 800.2C357.1 801.1 360.8 802.1 371.2 803.7C379.1 805 385.6 805.9 385.6 805.7C385.7 805.6 386 803.9 386.4 801.9L387 798.4C368 795.6 361.6 794.6 360.4 794.3C358.7 793.8 358.3 794.2 358.1 796.3Z" fill="#650C0F"/>
<path opacity="0.98" d="M263.5 529.6C262.6 530.4 261.9 531.7 261.9 532.3C261.9 533 262.5 534.1 263.2 534.8C264.2 535.8 274.4 536 309.1 536C343.4 536 353.9 535.7 354.8 534.7C355.5 534.1 356 532.9 356 532.2C356 531.6 355.3 530.3 354.5 529.5C353.2 528.2 346.8 528 309.1 528C270.5 528 264.9 528.2 263.5 529.6ZM501.4 530.1C499.9 531.7 499.7 532.5 500.6 533.8C501.6 535.4 505.6 535.5 547.6 535.5H593.5C593.9 531.6 593.5 529.9 592.8 529.2C591.8 528.2 582.2 527.9 547.4 528C504.2 528 503.3 528 501.4 530.1ZM289.7 552.3C275.7 555.4 270.6 556.9 269.9 558.2C269.3 559.4 269.4 560.7 270.2 562.1C271.2 563.9 272.1 564.2 274.5 563.7C276.1 563.4 284.2 561.7 292.5 560C300.7 558.2 308.6 556.3 310 555.7C311.4 555 312.5 553.6 312.6 552.6C312.6 551.5 311.9 550 311.1 549.3C310.2 548.6 309.3 548 309 548.1C308.7 548.1 300 550.1 289.7 552.3ZM545.1 549.2C544.5 549.9 544.1 551.6 544.2 553C544.4 555 545.3 555.7 549 556.6C551.5 557.3 560.4 559.2 568.7 560.9C581.1 563.4 584.3 563.8 585.5 562.7C586.4 562.1 587.1 560.8 587.1 560C587.1 559.2 586.5 558 585.8 557.3C585.1 556.7 581.1 555.5 577 554.6C572.9 553.8 564.3 551.9 558 550.5C551.7 549.1 546.4 548 546.4 548C546.3 548 545.7 548.6 545.1 549.2ZM321.3 567.8C301.4 576.5 284.4 584.2 283.5 585C282.5 585.9 282.1 587.3 282.4 588.5C282.7 589.6 283.7 590.8 284.7 591.1C285.8 591.5 298.3 586.6 317.5 578.3C334.6 570.9 351.4 563.7 354.9 562.2C358.4 560.7 361.8 558.7 362.4 557.7C363.2 556.5 363.2 555.5 362.4 554.2C361.8 553.3 360.4 552.4 359.4 552.3C358.4 552.2 341.2 559.2 321.3 567.8ZM495.2 552.8C494.5 553.2 494 554.8 494.2 556.4C494.5 559 495.3 559.7 501 562.1C504.6 563.6 521.7 570.9 539 578.3C562.9 588.6 570.9 591.7 572.2 590.9C573.4 590.3 573.9 589 573.7 587.3C573.5 584.8 571.8 583.9 546 572.8C530.9 566.3 514 559 508.5 556.5C503 554.1 498 552 497.5 552C496.9 552 495.9 552.4 495.2 552.8ZM343 600.2C326.2 616.9 312.6 631.2 312.7 632C312.9 632.8 313.5 634.1 314.2 634.8C314.9 635.5 316.2 636 317 636C317.8 636 332.1 622.4 348.8 605.8C374.4 580.2 379.1 575.1 378.8 573C378.6 571.2 377.8 570.4 376 570.2C373.9 570 368.5 574.9 343 600.2ZM477.4 572.7C476.8 575.3 479.1 577.8 507.1 605.8C523.8 622.4 538.2 636 539 636C539.9 636 541.1 635.4 541.8 634.7C542.5 634.1 543 632.6 543 631.5C543 630.2 532.1 618.6 513.2 599.7C488.7 575.2 483 570 480.8 570C478.6 570 477.9 570.6 477.4 572.7ZM312.7 596.8C304 602.1 296.5 607.3 295.9 608.2C295.4 609.2 295.2 610.7 295.5 611.5C295.8 612.3 296.9 613.2 298 613.5C299.3 613.8 305.2 610.9 315.7 604.4C324.4 599.1 332.1 594.1 332.8 593.2C333.5 592.2 334 591.2 334 590.7C334 590.3 333.3 589.3 332.5 588.5C331.7 587.7 330.4 587 329.7 587C329.1 587 321.4 591.4 312.7 596.8ZM524.1 588.5C523.5 589.3 523.1 590.8 523.3 591.7C523.4 592.7 526 595.1 529 597.1C532 599.1 539.4 603.8 545.5 607.4C551.5 611.1 557.1 613.9 557.9 613.8C558.7 613.6 559.8 612.7 560.4 611.7C561.2 610.5 561.2 609.5 560.4 608.2C559.8 607.3 552.2 602.1 543.4 596.7C534.7 591.4 527 587 526.4 587C525.7 587 524.7 587.7 524.1 588.5ZM353.8 629.7C349.1 636.2 344.1 643.3 342.6 645.5C340.8 648.167 340.067 650.233 340.4 651.7C340.9 653.4 341.7 654 343.7 654C346.1 654 347.8 652 357 639C364.3 628.7 367.5 623.2 367.5 621.3C367.5 619 367 618.4 364.9 618.2C362.5 617.9 361.3 619.2 353.8 629.7ZM488.3 619.7C488 620.7 488.2 622.4 488.8 623.5C489.3 624.6 493.3 630.5 497.5 636.5C501.8 642.5 506.4 649 507.7 650.7C509.5 653.2 510.6 653.9 512.7 653.7C514.8 653.6 515.6 652.9 515.7 651.2C515.9 649.8 512.4 643.8 505.2 633.5C495.8 619.9 494.2 618 491.7 618C490 618 488.7 618.6 488.3 619.7Z" fill="#FDD264"/>
<path opacity="0.99" fill-rule="evenodd" clip-rule="evenodd" d="M398 133H457V135.3C457 136.5 457.9 141.8 459 147C460.1 152.2 462.5 161 464.2 166.5C466 172 469.7 181 472.5 186.5C475.2 192 480.5 200.8 484.2 206C487.9 211.2 494.2 218.9 498.2 223.1C502.2 227.3 508.6 233.2 512.5 236.2C516.4 239.2 522.2 243.5 525.5 245.7C528.8 247.9 535.7 251.8 540.8 254.4C545.8 256.9 553.5 260.2 557.7 261.6C562 263 570.7 265.3 577 266.7C587.2 269 591.2 269.3 637 270V351.8C637 396.7 636.7 435 635.5 440H608V298.5L596.8 297.8C590.6 297.3 581.9 296.4 577.5 295.6C573.1 294.8 565 293 559.5 291.6C554 290.2 546.8 288 543.5 286.7C540.2 285.3 533.5 282.4 528.5 280C523.5 277.7 514.3 272.4 508 268.2C501.8 264 493.7 257.9 490 254.7C486.4 251.5 480.4 245.6 476.6 241.7C472.8 237.7 467.8 232 465.5 229C463.2 226 458.6 219.4 455.4 214.5C452.2 209.6 447.4 200.8 444.7 195C442 189.2 438.2 179.8 436.4 174C434.5 168.2 433 162.7 433 161.8C433 160.3 432.1 160 422 160L421 164.3C420.4 166.6 418.5 172.6 416.9 177.5C415.2 182.4 411.9 190.6 409.6 195.5C407.2 200.4 403 208.3 400.1 213C397.1 217.7 392.7 224.2 390.2 227.5C387.6 230.8 381.5 237.7 376.5 242.9C371.6 248 364.4 254.8 360.5 257.9C356.6 261.1 350.1 265.8 346 268.5C341.9 271.2 333.6 275.9 327.5 279C321.4 282.1 311.8 286.3 306 288.2C300.2 290.1 292.4 292.5 288.5 293.3C284.6 294.2 279.5 295.4 277 295.9C274.5 296.5 266.1 297.3 244 298.5L243.5 440.5L216 441V270H236C247 270 259.3 269.5 263.2 268.9C267.2 268.4 274.8 267 280 266C285.2 265 293.8 262.5 299 260.5C304.2 258.5 313 254.5 318.5 251.7C324 248.8 331 244.7 334 242.4C337 240.2 342.9 235.5 347 231.9C351.1 228.4 357.3 222.1 360.8 218C364.3 213.9 369.5 207.1 372.3 203C375.1 198.9 379.5 191.2 382.1 186C384.7 180.8 388.2 172.7 389.8 168C391.4 163.3 393.8 154.6 395 148.5C396.2 142.4 397.3 136.5 397.6 135.3L398 133ZM465.7 276.5C470.4 276.7 477.3 278 481.7 279.4C486 280.7 491.7 283.3 499.5 288.5L500 373L497.4 374.7C494.9 376.4 494.6 376.4 489.1 373.7C486 372.1 481 370.2 478 369.4C474.9 368.6 468.4 368 463.5 368C458 367.9 452.3 368.6 449 369.6C445.9 370.4 440.9 372.5 437.7 374.1C434.5 375.7 431.7 377.4 431.5 378C431.2 378.5 429.9 379 428.7 379C427.5 379 423.8 377.4 420.5 375.4C417.2 373.5 411.3 370.9 407.5 369.7C402.8 368.3 397.8 367.6 392.5 367.6C386.9 367.6 382.4 368.3 378 369.8C374.4 370.9 369.3 373.3 366.7 374.9C364.1 376.6 361.5 378 361 378C360.4 378 358.8 377.4 354.9 375.5V332.7C355 291.3 355 289.9 357 287.9C358.1 286.8 360.9 285 363.2 283.8C365.5 282.6 369.9 280.8 373 279.7C376.5 278.5 382.3 277.6 389.5 277.2C398.8 276.8 401.7 277 408.5 278.9C412.9 280.1 419.1 282.3 422.3 283.8C427.8 286.3 428.2 286.4 430.8 284.8C432.2 283.9 435.9 282.1 439 280.9C442 279.7 447.4 278.1 451 277.4C454.9 276.5 460.7 276.2 465.7 276.5ZM373 287.9C369.9 289 366.4 290.7 365.2 291.5L363 292.9V367.9C372.6 363.5 377.8 361.7 380.7 361.1C383.6 360.5 389.2 359.9 393.2 359.9C397.2 359.9 403.2 360.6 406.5 361.5C409.8 362.3 416.1 364.7 420.5 366.9L428.5 370.7C433.9 367.2 438.8 364.9 443 363.4C449.8 360.8 451.6 360.5 463.5 360.5C475.1 360.5 477.3 360.8 484.2 363.2C488.5 364.7 492.2 365.9 492.5 365.9C492.7 365.9 493 349.5 493 329.4V292.9C488.7 290.2 484.5 288.4 481 287.1C476.9 285.6 471.3 284.5 466 284.2C460.1 283.9 455.4 284.2 450.7 285.3C447 286.2 440.8 288.5 437 290.4C433.1 292.4 429.2 294 428.2 294C427.2 294 423.5 292.7 420 291C416.4 289.4 410.8 287.4 407.5 286.6C404.2 285.8 399.2 284.9 396.5 284.7C393.7 284.5 388.5 284.7 385 285.1C381.4 285.4 376 286.7 373 287.9ZM292.8 311C298.7 311 300.9 311.4 302.2 312.7C303.8 314.3 304 316.6 304 357.4L307.7 361.1C311.1 364.4 311.9 364.7 319.5 363.8L353.5 398L370.5 397.9C386.7 397.9 387.6 398 390.4 400.2C392 401.4 396.2 405.7 406 416.9L405.9 427.7C405.9 437.5 405.7 438.7 403.7 440.7C401.5 443 401.3 443 343.5 443L282 381.4L281.9 348.4C281.8 319.2 282 315.1 283.4 313.2C284.9 311.2 285.9 311 292.8 311ZM290 379.4L346.5 435L398 434.9V418.4L385.5 406L350.5 405.9L316.5 371.9L310 378.4C330.2 398.7 334 403.2 334 404.7C333.933 406.167 333.167 407.1 331.7 407.5C329.8 408 327.2 405.9 315.7 394.3C305.3 383.8 302 379.8 302 377.9C302 376.6 303 374.4 304.2 373.2L306.5 371L296 359.9V318.9H290V379.4ZM561.3 311C566.6 311 568.8 311.4 570.2 312.7C571.8 314.3 572 317.1 571.9 382.4L511.4 442.9H481.9C455.3 442.9 452.2 442.7 450.6 441.2C449.1 439.7 448.9 437.8 449.3 415.6L466.5 397.9L501.4 398L535.4 363.8L539.4 364.3C543 364.7 543.8 364.4 550.9 357.4L550.7 336C550.5 316.5 550.7 314.4 552.4 312.8C553.8 311.3 555.7 311 561.3 311ZM557.9 360.9L548.4 371C551.8 374.4 552.9 376.6 552.9 377.9C552.9 379.8 549.6 383.8 539.1 394.2C531.6 401.8 524.7 408 523.9 408C523.1 408 521.8 407.4 521.1 406.7C520.4 406 519.9 404.8 519.9 403.9C519.9 403.1 525.4 396.9 532.2 390.2L544.4 378L538.4 371.9L504.4 405.9H468.6L456.9 418.4V434.9H508.4L564.9 378.4V318.9H557.9V360.9ZM634.4 467.4C636.3 467.4 636.4 468.1 636.4 480.6C636.4 487.9 636 494.2 635.6 494.6C635.1 495.1 540.5 495.6 215.9 495.9V467.9L424.1 467.7C538.7 467.5 633.3 467.4 634.4 467.4ZM626.4 525.6C628 525.8 630.9 526 635.9 525.9L635.3 531.7C635 534.9 634.1 541.5 633.3 546.4C632.5 551.4 630.4 560.6 628.8 566.9C627.1 573.3 623.7 583.6 621.2 589.9C618.7 596.3 615.3 604.2 613.6 607.4C612 610.7 609.8 614.6 608.9 615.9C608 617.3 604.1 623.2 600.3 628.9C596.5 634.7 589.6 643.9 584.8 649.4C580.1 654.9 572.4 662.9 567.6 667.2C562.8 671.5 555.4 677.5 551.1 680.7C546.9 683.9 539.3 688.9 534.4 691.9C529.4 694.9 520.9 699.5 515.4 702C509.9 704.6 501.3 708.2 496.4 709.9C491.4 711.6 483.1 714.1 477.9 715.5C472.7 716.8 464.1 718.6 458.9 719.5C453.7 720.3 442.4 721.3 433.9 721.6C424.4 722 413.8 721.8 406.4 721C399.8 720.3 390.1 718.9 384.9 717.9C379.7 716.9 370.9 714.7 365.4 713.1C359.9 711.4 350 707.8 343.4 705C336.8 702.2 326.7 697.2 320.9 693.7C315.1 690.3 306.5 684.7 301.9 681.4C297.3 678.2 287.9 670.1 281.1 663.4C274.2 656.8 265.9 648.1 262.6 643.9C259.3 639.8 253.4 631.7 249.7 625.9C245.9 620.2 240.1 610.1 236.9 603.4C233.7 596.8 229.3 586.1 227.1 579.4C224.9 572.8 221.9 561.9 220.5 555.2C219.1 548.5 217.6 539.1 216.4 525.9H243.9L244.5 530.7C244.8 533.3 245.9 540.4 247 546.4C248.2 552.5 250.2 561.1 251.6 565.4C253 569.8 256.2 578.2 258.8 583.9C261.4 589.7 266 598.7 269.1 603.9C272.1 609.2 277.5 617.3 281 621.9C284.4 626.6 291.6 634.8 296.8 640C302.1 645.3 311.1 653.1 316.9 657.4C322.7 661.7 330.5 667 334.4 669.2C338.2 671.5 345.9 675.3 351.4 677.7C356.9 680.2 364.3 683.2 367.9 684.4C371.5 685.7 379.8 687.9 386.4 689.3C393 690.8 402.7 692.4 407.9 692.9C413.1 693.5 421.2 693.9 425.9 693.9C430.6 693.9 439.8 693.3 446.4 692.4C453 691.6 463.1 689.8 468.9 688.5C474.7 687.1 481.9 685.1 484.9 684.1C487.9 683 494 680.6 498.4 678.7C502.8 676.9 509.5 673.6 513.4 671.5C517.2 669.4 524.2 665 528.9 661.8C533.6 658.7 541.2 652.8 545.8 648.7C550.5 644.7 558.1 637.2 562.6 631.9C567.2 626.7 573.9 618.2 577.4 612.9C580.8 607.7 585.7 599.4 588.2 594.4C590.6 589.5 594.7 579.8 597.3 572.9C600.1 565.6 603 555.3 604.4 547.9C605.7 541.1 607 533.3 607.9 525.9L615.6 525.6C619.9 525.4 624.7 525.4 626.4 525.6ZM483.4 529L485.2 531.2C486.2 532.4 487 533.7 486.9 533.9C486.9 534.2 477.8 549.2 466.6 567.2C447.2 598.6 446.5 600 448.2 601.7C449.6 603.1 449.9 605.1 449.9 611.4C449.9 617.6 449.4 619.9 448.1 621.2C446.6 622.8 444.4 623 427.9 623C411.8 622.9 409.2 622.7 407.6 621.2C406.2 619.8 405.8 617.8 405.8 611.4C405.8 605.4 406.2 603.1 407.4 601.9C408.3 601.1 409 600.2 409 599.9C409 599.7 399.9 584.8 388.8 566.9C369.4 535.6 368.8 534.4 370 531.8C370.8 530.3 372.3 528.9 373.4 528.8C374.5 528.6 399.7 528.6 483.4 529ZM397.5 566.7C407.8 583.1 416.3 596.7 416.5 596.9C416.7 597.2 417.5 596.6 418.3 595.4C419.1 594.3 420.5 592.1 421.4 590.4L423.1 587.4L391.4 536.4C381.8 536 379 536.1 378.9 536.4C378.9 536.7 387.3 550.3 397.5 566.7ZM403.7 541.7L406.4 545.9C442 546 447.8 545.6 449 544.7C449.9 544 451.6 542 452.7 540.2C453.9 538.4 454.9 536.7 454.9 536.4C454.9 536.2 442.7 535.9 427.9 535.9C413 535.9 400.9 536.3 400.9 536.7C400.9 537.1 402.2 539.4 403.7 541.7ZM445.8 565.6C435.7 581.9 426.8 596.3 426.1 597.6C424.9 599.9 424.9 599.9 431.1 599.9H437.4C464.9 555.4 473.8 541 474.9 539.2L476.9 535.9H464.3L445.8 565.6ZM419.6 567.5C423.7 574.1 427.3 579.6 427.5 579.7C427.7 579.9 431.4 574.3 435.8 567.2C440.2 560.2 443.8 554.2 443.8 553.7C443.8 553.3 436.4 553 427.2 553C414.2 553 410.8 553.3 411.4 554.2C411.8 554.9 415.6 560.9 419.6 567.5ZM413.8 615H442.8V608H413.8V615ZM429.3 629.3C433.5 629.5 436.8 630.4 440.1 632.3C442.7 633.8 445.9 636.5 447.3 638.2C448.6 640 450.4 643.5 451.3 646C452.2 648.5 452.9 652.1 452.9 654C452.9 655.9 452.1 659.7 451.1 662.5C450.1 665.3 447.6 669.2 445.3 671.5C443 673.8 439.1 676.2 436.3 677.2C433.6 678.2 430 679 428.3 679C426.7 679 423 678.3 420.1 677.5C416.5 676.5 413.5 674.7 410.6 671.7C407.7 668.9 405.6 665.6 404.4 662C403.3 658.6 402.7 654.8 403 652C403.2 649.5 404.5 645.3 405.9 642.6C407.2 639.9 409.9 636.4 411.8 634.8C413.8 633.3 417.1 631.3 419.3 630.5C421.8 629.5 425.6 629.1 429.3 629.3ZM413.9 643.9C412.1 646.3 411.2 649 411 652.4C410.7 656.1 411.2 658.6 412.7 661.7C413.9 664.1 416.3 667 418.1 668.2C420 669.5 423.4 670.6 426.3 670.8C429.9 671.1 432.5 670.7 435.3 669.4C437.4 668.3 440.3 665.9 441.8 664.1C443.5 661.7 444.5 659 444.7 655.6C445 652 444.5 649.3 443.2 646.6C442.2 644.4 439.8 641.5 437.9 640.1C435.4 638.2 433 637.4 428.9 637.2C425 637 422.3 637.5 419.9 638.7C418 639.7 415.3 642 413.9 643.9Z" fill="#650C0F"/>
</svg>
