<svg width="90" height="85" viewBox="0 0 90 85" fill="none" xmlns="http://www.w3.org/2000/svg">
<path d="M45.4969 73.4253C65.6535 73.4253 81.9937 57.0851 81.9937 36.9285C81.9937 16.7718 65.6535 0.431641 45.4969 0.431641C25.3402 0.431641 9 16.7718 9 36.9285C9 57.0851 25.3402 73.4253 45.4969 73.4253Z" fill="url(#paint0_linear_3516_17694)"/>
<path d="M5.04004 18.2401C5.04004 17.0471 6.0071 16.0801 7.20004 16.0801H82.8C83.993 16.0801 84.96 17.0471 84.96 18.2401V71.1601C84.96 72.353 83.993 73.3201 82.8 73.3201H7.20004C6.0071 73.3201 5.04004 72.353 5.04004 71.1601V18.2401Z" fill="#CF9EAA"/>
<path fill-rule="evenodd" clip-rule="evenodd" d="M82.8 18.1681H7.20004C7.16027 18.1681 7.12804 18.2003 7.12804 18.2401V71.1601C7.12804 71.1998 7.16027 71.2321 7.20004 71.2321H82.8C82.8398 71.2321 82.872 71.1998 82.872 71.1601V18.2401C82.872 18.2003 82.8398 18.1681 82.8 18.1681ZM7.20004 16.0801C6.0071 16.0801 5.04004 17.0471 5.04004 18.2401V71.1601C5.04004 72.353 6.0071 73.3201 7.20004 73.3201H82.8C83.993 73.3201 84.96 72.353 84.96 71.1601V18.2401C84.96 17.0471 83.993 16.0801 82.8 16.0801H7.20004Z" fill="#650C0F"/>
<path d="M10.4399 22.9198C10.4399 21.7268 11.407 20.7598 12.5999 20.7598H77.3999C78.5929 20.7598 79.5599 21.7268 79.5599 22.9198V66.4798C79.5599 67.6727 78.5929 68.6398 77.3999 68.6398H12.5999C11.407 68.6398 10.4399 67.6727 10.4399 66.4798V22.9198Z" fill="white"/>
<path fill-rule="evenodd" clip-rule="evenodd" d="M77.3999 22.8478H12.5999C12.5602 22.8478 12.5279 22.88 12.5279 22.9198V66.4798C12.5279 66.5195 12.5602 66.5518 12.5999 66.5518H77.3999C77.4397 66.5518 77.4719 66.5195 77.4719 66.4798V22.9198C77.4719 22.88 77.4397 22.8478 77.3999 22.8478ZM12.5999 20.7598C11.407 20.7598 10.4399 21.7268 10.4399 22.9198V66.4798C10.4399 67.6727 11.407 68.6398 12.5999 68.6398H77.3999C78.5929 68.6398 79.5599 67.6727 79.5599 66.4798V22.9198C79.5599 21.7268 78.5929 20.7598 77.3999 20.7598H12.5999Z" fill="#650C0F"/>
<path d="M15.8401 27.2402C15.8401 26.6437 16.3236 26.1602 16.9201 26.1602H73.0801C73.6766 26.1602 74.1601 26.6437 74.1601 27.2402V34.8002C74.1601 35.3966 73.6766 35.8802 73.0801 35.8802H16.9201C16.3236 35.8802 15.8401 35.3966 15.8401 34.8002V27.2402Z" fill="#F0E7E7"/>
<path fill-rule="evenodd" clip-rule="evenodd" d="M17.9281 28.2482V33.7922H72.0721V28.2482H17.9281ZM16.9201 26.1602C16.3236 26.1602 15.8401 26.6437 15.8401 27.2402V34.8002C15.8401 35.3966 16.3236 35.8802 16.9201 35.8802H73.0801C73.6766 35.8802 74.1601 35.3966 74.1601 34.8002V27.2402C74.1601 26.6437 73.6766 26.1602 73.0801 26.1602H16.9201Z" fill="#650C0F"/>
<path d="M25.9199 44.8808C25.9199 44.2843 26.4035 43.8008 26.9999 43.8008H43.9199C44.5164 43.8008 44.9999 44.2843 44.9999 44.8808V44.8808C44.9999 45.4772 44.5164 45.9608 43.9199 45.9608H26.9999C26.4035 45.9608 25.9199 45.4772 25.9199 44.8808V44.8808Z" fill="#650C0F"/>
<path d="M15.8401 51.7206C15.8401 51.1242 16.3236 50.6406 16.9201 50.6406H38.5201C39.1166 50.6406 39.6001 51.1242 39.6001 51.7206V51.7206C39.6001 52.3171 39.1166 52.8006 38.5201 52.8006H16.9201C16.3236 52.8006 15.8401 52.3171 15.8401 51.7206V51.7206Z" fill="#650C0F"/>
<path d="M15.8401 58.5605C15.8401 57.964 16.3236 57.4805 16.9201 57.4805H37.8001C38.3966 57.4805 38.8801 57.964 38.8801 58.5605V58.5605C38.8801 59.1569 38.3966 59.6405 37.8001 59.6405H16.9201C16.3236 59.6405 15.8401 59.1569 15.8401 58.5605V58.5605Z" fill="#650C0F"/>
<path d="M15.8401 44.8808C15.8401 44.2843 16.3236 43.8008 16.9201 43.8008H21.9601C22.5566 43.8008 23.0401 44.2843 23.0401 44.8808V44.8808C23.0401 45.4772 22.5566 45.9608 21.9601 45.9608H16.9201C16.3236 45.9608 15.8401 45.4772 15.8401 44.8808V44.8808Z" fill="#650C0F"/>
<path d="M51.8398 68.9993C51.8398 68.6017 52.1622 68.2793 52.5598 68.2793H68.3998C68.7975 68.2793 69.1198 68.6017 69.1198 68.9993V82.3906C69.1198 82.9703 68.4697 83.3123 67.9919 82.9839L60.8877 78.0997C60.642 77.9308 60.3176 77.9308 60.0719 78.0997L52.9677 82.9839C52.49 83.3123 51.8398 82.9703 51.8398 82.3906V68.9993Z" fill="white"/>
<path fill-rule="evenodd" clip-rule="evenodd" d="M53.9278 70.3673V79.7899L58.889 76.3791C59.8473 75.7203 61.1124 75.7203 62.0707 76.3791L67.0318 79.7899V70.3673H53.9278ZM69.1198 68.9993C69.1198 68.6017 68.7975 68.2793 68.3998 68.2793H52.5598C52.1622 68.2793 51.8398 68.6017 51.8398 68.9993V82.3906C51.8398 82.9703 52.49 83.3123 52.9677 82.9839L60.0719 78.0997C60.3176 77.9308 60.642 77.9308 60.8877 78.0997L67.9919 82.9839C68.4697 83.3123 69.1198 82.9703 69.1198 82.3906V68.9993Z" fill="#650C0F"/>
<path d="M76.3199 55.6798C76.3199 64.428 69.2281 71.5198 60.4799 71.5198C51.7317 71.5198 44.6399 64.428 44.6399 55.6798C44.6399 46.9317 51.7317 39.8398 60.4799 39.8398C69.2281 39.8398 76.3199 46.9317 76.3199 55.6798Z" fill="#CF9EAA"/>
<path fill-rule="evenodd" clip-rule="evenodd" d="M60.4799 69.4318C68.0749 69.4318 74.2319 63.2749 74.2319 55.6798C74.2319 48.0848 68.0749 41.9278 60.4799 41.9278C52.8849 41.9278 46.7279 48.0848 46.7279 55.6798C46.7279 63.2749 52.8849 69.4318 60.4799 69.4318ZM60.4799 71.5198C69.2281 71.5198 76.3199 64.428 76.3199 55.6798C76.3199 46.9317 69.2281 39.8398 60.4799 39.8398C51.7317 39.8398 44.6399 46.9317 44.6399 55.6798C44.6399 64.428 51.7317 71.5198 60.4799 71.5198Z" fill="#650C0F"/>
<path d="M72 55.6802C72 62.0425 66.8423 67.2002 60.48 67.2002C54.1176 67.2002 48.96 62.0425 48.96 55.6802C48.96 49.3178 54.1176 44.1602 60.48 44.1602C66.8423 44.1602 72 49.3178 72 55.6802Z" fill="white"/>
<path fill-rule="evenodd" clip-rule="evenodd" d="M60.48 65.1122C65.6891 65.1122 69.912 60.8893 69.912 55.6802C69.912 50.471 65.6891 46.2482 60.48 46.2482C55.2708 46.2482 51.048 50.471 51.048 55.6802C51.048 60.8893 55.2708 65.1122 60.48 65.1122ZM60.48 67.2002C66.8423 67.2002 72 62.0425 72 55.6802C72 49.3178 66.8423 44.1602 60.48 44.1602C54.1176 44.1602 48.96 49.3178 48.96 55.6802C48.96 62.0425 54.1176 67.2002 60.48 67.2002Z" fill="#650C0F"/>
<path d="M60.1374 49.1745C60.2452 48.8429 60.7144 48.8429 60.8222 49.1745L62.0963 53.0959C62.1445 53.2442 62.2827 53.3446 62.4387 53.3446H66.5618C66.9106 53.3446 67.0556 53.7909 66.7734 53.9959L63.4378 56.4194C63.3116 56.5111 63.2588 56.6736 63.307 56.8219L64.5811 60.7432C64.6889 61.0749 64.3093 61.3507 64.0271 61.1457L60.6914 58.7222C60.5652 58.6305 60.3944 58.6305 60.2682 58.7222L56.9325 61.1457C56.6504 61.3507 56.2708 61.0749 56.3785 60.7432L57.6527 56.8219C57.7009 56.6736 57.6481 56.5111 57.5219 56.4194L54.1862 53.9959C53.9041 53.7909 54.0491 53.3446 54.3978 53.3446H58.5209C58.6769 53.3446 58.8151 53.2442 58.8633 53.0959L60.1374 49.1745Z" fill="#650C0F"/>
<path fill-rule="evenodd" clip-rule="evenodd" d="M58.8633 53.0959C58.8151 53.2442 58.6769 53.3446 58.5209 53.3446H54.3978C54.0491 53.3446 53.9041 53.7909 54.1862 53.9959L57.5219 56.4194C57.6481 56.5111 57.7009 56.6736 57.6527 56.8219L56.3785 60.7432C56.2708 61.0749 56.6504 61.3507 56.9325 61.1457L60.2682 58.7222C60.3944 58.6305 60.5652 58.6305 60.6914 58.7222L64.0271 61.1457C64.3093 61.3507 64.6889 61.0749 64.5811 60.7432L63.307 56.8219C63.2588 56.6736 63.3116 56.5111 63.4378 56.4194L66.7734 53.9959C67.0556 53.7909 66.9106 53.3446 66.5618 53.3446H62.4387C62.2827 53.3446 62.1445 53.2442 62.0963 53.0959L60.8222 49.1745C60.7144 48.8429 60.2452 48.8429 60.1374 49.1745L58.8633 53.0959ZM60.4798 54.4531C60.1849 54.8463 59.7773 55.1424 59.3122 55.3014C59.5951 55.7034 59.7507 56.1825 59.7582 56.6741C60.2279 56.5292 60.7317 56.5292 61.2015 56.6741C61.2089 56.1825 61.3646 55.7034 61.6475 55.3014C61.1823 55.1424 60.7747 54.8463 60.4798 54.4531Z" fill="#650C0F"/>
<defs>
<linearGradient id="paint0_linear_3516_17694" x1="41.5664" y1="39.1745" x2="45.4969" y2="-25.3308" gradientUnits="userSpaceOnUse">
<stop stop-color="#F5A425"/>
<stop offset="1" stop-color="#F5A425" stop-opacity="0"/>
</linearGradient>
</defs>
</svg>
