<svg width="90" height="85" viewBox="0 0 90 85" fill="none" xmlns="http://www.w3.org/2000/svg">
<path d="M38.5525 72.9341C57.9405 72.9341 73.6576 57.1739 73.6576 37.7327C73.6576 18.2915 57.9405 2.53125 38.5525 2.53125C19.1645 2.53125 3.44739 18.2915 3.44739 37.7327C3.44739 57.1739 19.1645 72.9341 38.5525 72.9341Z" fill="url(#paint0_linear_3516_17687)"/>
<path fill-rule="evenodd" clip-rule="evenodd" d="M11.2039 37.2187C11.2039 31.5052 14.6882 26.4588 19.6969 24.488C20.129 24.2716 21.197 23.8668 22.2227 23.7116C23.2485 23.5563 76.0928 23.7116 76.0928 23.7116H78.5414C79.4057 23.7116 79.7658 23.856 79.7658 25.5228V29.8512C79.7658 30.5302 79.2185 31.0791 78.5414 31.0791H77.0037C76.4099 33.072 76.0928 35.1325 76.0928 37.2187C76.0928 39.305 76.4087 41.3642 77.0025 43.3584H78.5414C79.2185 43.3584 79.7658 43.9072 79.7658 44.5863V48.2701C79.7658 49.4258 79.7658 50.7259 78.2534 50.7259H28.3443H25.8237C23.087 50.7259 21.2145 50.2925 21.2145 50.2925C15.4528 48.7613 11.2039 43.4726 11.2039 37.2187ZM73.9331 33.535H66.2954C65.6191 33.535 65.0708 34.0847 65.0708 34.7629C65.0708 35.4411 65.6191 35.9908 66.2954 35.9908H73.6931C73.6903 36.0471 73.6873 36.1034 73.6842 36.1597C73.6827 36.1878 73.6812 36.216 73.6796 36.2441C73.6619 36.5686 73.6442 36.8933 73.6442 37.2187C73.6442 37.5442 73.6619 37.8688 73.6796 38.1934L73.6798 38.1975C73.6844 38.2806 73.6889 38.3636 73.6931 38.4467H60.1769C59.5006 38.4467 58.9523 38.9964 58.9523 39.6746C58.9523 40.3528 59.5006 40.9025 60.1769 40.9025H73.9331C74.0617 41.7289 74.2416 42.5467 74.4559 43.3584H24.6714C22.6794 43.3584 20.9237 42.3846 19.8059 40.9025H23.4468C24.1231 40.9025 24.6714 40.3528 24.6714 39.6746C24.6714 38.9964 24.1231 38.4467 23.4468 38.4467H18.6734C18.5926 38.05 18.5498 37.6387 18.5498 37.2187C18.5498 33.8334 21.2959 31.0791 24.6714 31.0791H74.4559C74.2416 31.8896 74.0617 32.7086 73.9331 33.535ZM56.4485 33.535H53.0513V35.9908H56.4485V33.535ZM38.8556 33.535C39.5319 33.535 40.0802 34.0847 40.0802 34.7629C40.0802 35.4411 39.5319 35.9908 38.8556 35.9908H34.465C33.7886 35.9908 33.2404 35.4411 33.2404 34.7629C33.2404 34.0847 33.7886 33.535 34.465 33.535H38.8556ZM77.3171 26.1674V28.6233H24.6714C19.9467 28.6233 16.1011 32.4802 16.1011 37.2187C16.1011 41.9573 19.9467 45.8142 24.6714 45.8142H77.3171V48.2701H24.6714C18.5951 48.2701 13.6525 43.3129 13.6525 37.2187C13.6525 31.1246 18.5951 26.1674 24.6714 26.1674H77.3171Z" fill="#650C0F"/>
<path d="M77.3171 26.1674V28.6233H24.6714C19.9467 28.6233 16.1011 32.4802 16.1011 37.2187C16.1011 41.9573 19.9467 45.8142 24.6714 45.8142H77.3171V48.2701H24.6714C18.5951 48.2701 13.6525 43.3129 13.6525 37.2187C13.6525 31.1246 18.5951 26.1674 24.6714 26.1674H77.3171Z" fill="#CF9EAA"/>
<path fill-rule="evenodd" clip-rule="evenodd" d="M73.6931 38.4467H60.1769C59.5006 38.4467 58.9523 38.9964 58.9523 39.6746C58.9523 40.3528 59.5006 40.9025 60.1769 40.9025H73.9331C74.0617 41.7289 74.2416 42.5467 74.4559 43.3584H24.6714C22.6794 43.3584 20.9237 42.3846 19.8059 40.9025H23.4468C24.1231 40.9025 24.6714 40.3528 24.6714 39.6746C24.6714 38.9964 24.1231 38.4467 23.4468 38.4467H18.6734C18.5926 38.05 18.5498 37.6387 18.5498 37.2187C18.5498 33.8334 21.2959 31.0791 24.6714 31.0791H74.4559C74.2416 31.8896 74.0617 32.7086 73.9331 33.535H66.2954C65.6191 33.535 65.0708 34.0847 65.0708 34.7629C65.0708 35.4411 65.6191 35.9908 66.2954 35.9908H73.6931C73.6903 36.0471 73.6873 36.1034 73.6842 36.1597L73.6796 36.2441C73.6619 36.5686 73.6442 36.8933 73.6442 37.2187C73.6442 37.5442 73.6619 37.8688 73.6796 38.1934L73.6798 38.1975C73.6844 38.2806 73.6889 38.3636 73.6931 38.4467ZM34.465 35.9908C33.7886 35.9908 33.2404 35.4411 33.2404 34.7629C33.2404 34.0847 33.7886 33.535 34.465 33.535H38.8556C39.5319 33.535 40.0802 34.0847 40.0802 34.7629C40.0802 35.4411 39.5319 35.9908 38.8556 35.9908H34.465ZM53.0513 33.535V35.9908H56.4485V33.535H53.0513Z" fill="white"/>
<path fill-rule="evenodd" clip-rule="evenodd" d="M11.2039 61.8715C11.2039 56.158 14.6882 51.1116 19.6969 49.1408C20.129 48.9244 21.197 48.5196 22.2227 48.3644C23.2485 48.2091 76.0928 48.3644 76.0928 48.3644H78.5414C79.4057 48.3644 79.7658 48.5088 79.7658 50.1755V54.504C79.7658 55.183 79.2185 55.7319 78.5414 55.7319H77.0037C76.4099 57.7248 76.0928 59.7853 76.0928 61.8715C76.0928 63.9578 76.4087 66.017 77.0025 68.0111H78.5414C79.2185 68.0111 79.7658 68.56 79.7658 69.2391V72.9228C79.7658 74.0785 79.7658 75.3787 78.2534 75.3787H28.3443H25.8237C23.087 75.3787 21.2145 74.9453 21.2145 74.9453C15.4528 73.4141 11.2039 68.1253 11.2039 61.8715ZM73.9331 58.1877H66.2954C65.6191 58.1877 65.0708 58.7375 65.0708 59.4157C65.0708 60.0938 65.6191 60.6436 66.2954 60.6436H73.6931C73.6903 60.6999 73.6873 60.7562 73.6842 60.8125C73.6827 60.8406 73.6812 60.8688 73.6796 60.8969C73.6619 61.2214 73.6442 61.5461 73.6442 61.8715C73.6442 62.197 73.6619 62.5216 73.6796 62.8461L73.6798 62.8503C73.6844 62.9334 73.6889 63.0164 73.6931 63.0994H60.1769C59.5006 63.0994 58.9523 63.6492 58.9523 64.3274C58.9523 65.0055 59.5006 65.5553 60.1769 65.5553H73.9331C74.0617 66.3817 74.2416 67.1995 74.4559 68.0111H24.6714C22.6794 68.0111 20.9237 67.0374 19.8059 65.5553H23.4468C24.1231 65.5553 24.6714 65.0055 24.6714 64.3274C24.6714 63.6492 24.1231 63.0994 23.4468 63.0994H18.6734C18.5926 62.7028 18.5498 62.2915 18.5498 61.8715C18.5498 58.4861 21.2959 55.7319 24.6714 55.7319H74.4559C74.2416 56.5423 74.0617 57.3614 73.9331 58.1877ZM56.4485 58.1877H53.0513V60.6436H56.4485V58.1877ZM38.8556 58.1877C39.5319 58.1877 40.0802 58.7375 40.0802 59.4157C40.0802 60.0938 39.5319 60.6436 38.8556 60.6436H34.465C33.7886 60.6436 33.2404 60.0938 33.2404 59.4157C33.2404 58.7375 33.7886 58.1877 34.465 58.1877H38.8556ZM77.3171 50.8202V53.2761H24.6714C19.9467 53.2761 16.1011 57.133 16.1011 61.8715C16.1011 66.6101 19.9467 70.467 24.6714 70.467H77.3171V72.9228H24.6714C18.5951 72.9228 13.6525 67.9657 13.6525 61.8715C13.6525 55.7773 18.5951 50.8202 24.6714 50.8202H77.3171Z" fill="#650C0F"/>
<path d="M77.3171 50.8202V53.2761H24.6714C19.9467 53.2761 16.1011 57.133 16.1011 61.8715C16.1011 66.6101 19.9467 70.467 24.6714 70.467H77.3171V72.9228H24.6714C18.5951 72.9228 13.6525 67.9657 13.6525 61.8715C13.6525 55.7773 18.5951 50.8202 24.6714 50.8202H77.3171Z" fill="#CF9EAA"/>
<path fill-rule="evenodd" clip-rule="evenodd" d="M73.6931 63.0994H60.1769C59.5006 63.0994 58.9523 63.6492 58.9523 64.3274C58.9523 65.0055 59.5006 65.5553 60.1769 65.5553H73.9331C74.0617 66.3817 74.2416 67.1995 74.4559 68.0111H24.6714C22.6794 68.0111 20.9237 67.0374 19.8059 65.5553H23.4468C24.1231 65.5553 24.6714 65.0055 24.6714 64.3274C24.6714 63.6492 24.1231 63.0994 23.4468 63.0994H18.6734C18.5926 62.7028 18.5498 62.2915 18.5498 61.8715C18.5498 58.4861 21.2959 55.7319 24.6714 55.7319H74.4559C74.2416 56.5423 74.0617 57.3614 73.9331 58.1877H66.2954C65.6191 58.1877 65.0708 58.7375 65.0708 59.4157C65.0708 60.0938 65.6191 60.6436 66.2954 60.6436H73.6931C73.6903 60.6999 73.6873 60.7562 73.6842 60.8125L73.6796 60.8969C73.6619 61.2214 73.6442 61.5461 73.6442 61.8715C73.6442 62.197 73.6619 62.5216 73.6796 62.8461L73.6798 62.8503C73.6844 62.9334 73.6889 63.0164 73.6931 63.0994ZM34.465 60.6436C33.7886 60.6436 33.2404 60.0938 33.2404 59.4157C33.2404 58.7375 33.7886 58.1877 34.465 58.1877H38.8556C39.5319 58.1877 40.0802 58.7375 40.0802 59.4157C40.0802 60.0938 39.5319 60.6436 38.8556 60.6436H34.465ZM53.0513 58.1877V60.6436H56.4485V58.1877H53.0513Z" fill="white"/>
<path d="M70.6934 82.1834C79.6682 82.1834 86.9682 74.7846 86.9682 65.6909C86.9682 56.5972 79.6682 49.1973 70.6934 49.1973C61.7185 49.1973 54.4186 56.596 54.4186 65.6897C54.4186 74.7834 61.7185 82.1834 70.6934 82.1834ZM60.0542 56.6044L61.1019 57.6649C61.3309 57.897 61.6316 58.0136 61.9323 58.0136C62.233 58.0136 62.5337 57.897 62.7639 57.6649C63.222 57.1995 63.222 56.4472 62.7639 55.9818L61.7162 54.9201C63.8597 53.0823 66.5542 51.892 69.5118 51.6385V53.1418C69.5118 53.8001 70.038 54.3321 70.6863 54.3321C71.3347 54.3321 71.8609 53.8001 71.8609 53.1418V51.6385C74.8196 51.8885 77.5164 53.074 79.6612 54.9094L78.6147 55.9711C78.1554 56.4365 78.1554 57.19 78.6147 57.6542C78.8437 57.8863 79.1444 58.0029 79.4451 58.0029C79.7458 58.0029 80.0465 57.8863 80.2755 57.6542L81.3232 56.5913C83.1367 58.7635 84.3113 61.4952 84.5615 64.4923H83.078C82.4285 64.4923 81.9034 65.0244 81.9034 65.6826C81.9034 66.3408 82.4285 66.8729 83.078 66.8729H84.5627C84.316 69.87 83.1461 72.6028 81.335 74.7775L80.2872 73.7169C79.828 73.2515 79.0857 73.2515 78.6264 73.7169C78.1671 74.1823 78.1671 74.9358 78.6264 75.4L79.6753 76.4617C77.5317 78.2995 74.8372 79.4898 71.8797 79.7433V78.24C71.8797 77.5818 71.3535 77.0497 70.7051 77.0497C70.0568 77.0497 69.5306 77.5818 69.5306 78.24V79.7433C66.573 79.4934 63.875 78.3078 61.7303 76.4724L62.778 75.4119C63.2372 74.9465 63.2372 74.1942 62.778 73.7288C62.3187 73.2634 61.5752 73.2634 61.116 73.7288L60.0682 74.7906C58.2547 72.6183 57.0801 69.8878 56.83 66.8907H58.3134C58.9618 66.8907 59.488 66.3587 59.488 65.7004C59.488 65.0422 58.9618 64.5102 58.3134 64.5102H56.8288C57.0731 61.5119 58.243 58.779 60.0542 56.6044Z" fill="#650C0F"/>
<path d="M70.1405 68.46H76.1104C76.76 68.46 77.2889 67.9312 77.2889 67.2798C77.2889 66.6284 76.76 66.0995 76.1104 66.0995H71.319V58.3636C71.319 57.7123 70.7901 57.1834 70.1405 57.1834C69.4909 57.1834 68.962 57.7123 68.962 58.3636V67.2798C68.962 67.9312 69.4909 68.46 70.1405 68.46Z" fill="#650C0F"/>
<path fill-rule="evenodd" clip-rule="evenodd" d="M60.0542 56.6044L61.1019 57.6649C61.3309 57.897 61.6316 58.0136 61.9323 58.0136C62.233 58.0136 62.5337 57.897 62.7639 57.6649C63.222 57.1995 63.222 56.4472 62.7639 55.9818L61.7162 54.9201C63.8597 53.0823 66.5542 51.892 69.5118 51.6385V53.1418C69.5118 53.8001 70.038 54.3321 70.6863 54.3321C71.3347 54.3321 71.8609 53.8001 71.8609 53.1418V51.6385C74.8196 51.8885 77.5164 53.074 79.6612 54.9094L78.6147 55.9711C78.1554 56.4365 78.1554 57.19 78.6147 57.6542C78.8437 57.8863 79.1444 58.0029 79.4451 58.0029C79.7458 58.0029 80.0465 57.8863 80.2755 57.6542L81.3232 56.5913C83.1367 58.7635 84.3113 61.4952 84.5615 64.4923H83.078C82.4285 64.4923 81.9034 65.0244 81.9034 65.6826C81.9034 66.3408 82.4285 66.8729 83.078 66.8729H84.5627C84.316 69.87 83.1461 72.6028 81.335 74.7775L80.2872 73.7169C79.828 73.2515 79.0857 73.2515 78.6264 73.7169C78.1671 74.1823 78.1671 74.9358 78.6264 75.4L79.6753 76.4617C77.5317 78.2995 74.8372 79.4898 71.8797 79.7433V78.24C71.8797 77.5818 71.3535 77.0497 70.7051 77.0497C70.0568 77.0497 69.5306 77.5818 69.5306 78.24V79.7433C66.573 79.4934 63.875 78.3078 61.7303 76.4724L62.778 75.4119C63.2372 74.9465 63.2372 74.1942 62.778 73.7288C62.3187 73.2634 61.5752 73.2634 61.116 73.7288L60.0682 74.7906C58.2547 72.6183 57.0801 69.8878 56.83 66.8907H58.3134C58.9618 66.8907 59.488 66.3587 59.488 65.7004C59.488 65.0422 58.9618 64.5102 58.3134 64.5102H56.8288C57.0731 61.5119 58.243 58.779 60.0542 56.6044ZM76.1104 68.46H70.1405C69.4909 68.46 68.962 67.9312 68.962 67.2798V58.3636C68.962 57.7123 69.4909 57.1834 70.1405 57.1834C70.7901 57.1834 71.319 57.7123 71.319 58.3636V66.0995H76.1104C76.76 66.0995 77.2889 66.6284 77.2889 67.2798C77.2889 67.9312 76.76 68.46 76.1104 68.46Z" fill="white"/>
<defs>
<linearGradient id="paint0_linear_3516_17687" x1="34.772" y1="39.899" x2="38.5732" y2="-22.3155" gradientUnits="userSpaceOnUse">
<stop stop-color="#F5A425"/>
<stop offset="1" stop-color="#F5A425" stop-opacity="0"/>
</linearGradient>
</defs>
</svg>
