<?xml version="1.0" encoding="utf-8"?>
<!-- Generator: Adobe Illustrator 27.3.1, SVG Export Plug-In . SVG Version: 6.00 Build 0)  -->
<svg version="1.1" id="Layer_1" xmlns="http://www.w3.org/2000/svg" xmlns:xlink="http://www.w3.org/1999/xlink" x="0px" y="0px"
	 viewBox="0 0 95 95" style="enable-background:new 0 0 95 95;" xml:space="preserve">
<style type="text/css">
	.st0{fill:url(#SVGID_1_);}
	.st1{fill:#FFFFFF;}
	.st2{fill:#CF9EAA;}
	.st3{fill:none;stroke:#800020;stroke-width:1.8746;}
	.st4{fill:#FFFFFF;stroke:#800020;stroke-width:1.2497;}
	.st5{fill:#800020;}
	.st6{fill:none;stroke:#800020;stroke-width:1.0414;}
	.st7{fill:#CF9EAA;stroke:#800020;stroke-width:1.0414;}
</style>
<linearGradient id="SVGID_1_" gradientUnits="userSpaceOnUse" x1="35.2621" y1="47.9634" x2="39.0753" y2="110.5451" gradientTransform="matrix(1 0 0 -1 0 96)">
	<stop  offset="0" style="stop-color:#F5A425"/>
	<stop  offset="1" style="stop-color:#F5A425;stop-opacity:0"/>
</linearGradient>
<circle class="st0" cx="35.4" cy="45.6" r="35.4"/>
<rect x="12.6" y="25.3" class="st1" width="69.8" height="51.8"/>
<rect x="12.6" y="67" class="st2" width="69.8" height="10.1"/>
<rect x="40.7" y="77.1" class="st1" width="15.8" height="7.9"/>
<path class="st3" d="M12.6,27.4v28.9V75c0,1.2,0.9,2.1,2.1,2.1h28.9h37.3c1.2,0,2.1-0.9,2.1-2.1V27.4c0-1.2-0.9-2.1-2.1-2.1H14.6
	C13.5,25.3,12.6,26.3,12.6,27.4z"/>
<path class="st3" d="M55.9,77.7v8.4 M61.5,86.1H40.1 M34.5,86.1h5.6 M40.1,77.7v8.4"/>
<path class="st3" d="M12.6,66.4h70.3"/>
<circle class="st4" cx="48" cy="72" r="2.2"/>
<path class="st2" d="M55.5,33.4c-6,0.7-6.6,5.6-6.2,7.9c0.7,0.4,2.1-1.9,2.6-3.1c0.7,1.4,3.8,1.8,5.3,1.8c3.5,1.4,6.5,0.9,7.5,0.4
	l-0.4-3.1C63.8,35.7,61.5,32.6,55.5,33.4z"/>
<path class="st5" d="M73.7,66.1L71.6,59c-0.5-1.7-1.5-3.2-2.8-4.3c-1.3-1.2-2.9-1.9-4.6-2.2l-3.5-0.6v-1.7c1.3-0.6,2.5-1.6,3.3-2.9
	c0.8-1.3,1.2-2.7,1.2-4.2v-3.7c0-0.8-0.2-1.6-0.5-2.4c-0.3-0.7-0.8-1.4-1.4-2c-1.7-1.7-4-2.6-6.4-2.6s-4.7,0.9-6.4,2.6
	c-0.6,0.6-1,1.2-1.4,2c-0.3,0.7-0.5,1.5-0.5,2.4v3.7c0,1.5,0.4,2.9,1.2,4.2c0.8,1.3,1.9,2.3,3.3,2.9v1.7l-3.7,0.6
	c-1.5,0.2-3,0.9-4.2,1.8c-1.2,1-2.2,2.2-2.8,3.7c0,0.1-0.2,0.4-0.2,0.5c0,0.1,0.1-0.1,0.2-0.1c0,0.1,0.1,0.1,0.1,0.2
	c0.1,0.1,0.1,0.1,0.2,0.1c0.1,0,0.2,0,0.2,0c0.1,0-0.3,0.2-0.2,0.2c0.1,0,0.3-0.1,0.4-0.2c0.3-0.2,0.5-0.5,0.6-0.9
	c0.5-0.9,1.1-1.8,1.9-2.5c0.9-0.8,2-1.4,3.2-1.7v3.1c-0.5,0.1-0.9,0.5-1.2,0.9c-0.3,0.4-0.4,1-0.3,1.5c0.1,0.5,0.3,1,0.7,1.3
	c0.4,0.3,0.9,0.5,1.4,0.5c0.5,0,1-0.2,1.4-0.5c0.4-0.3,0.7-0.8,0.7-1.3c0.1-0.5,0-1.1-0.3-1.5c-0.3-0.4-0.7-0.8-1.2-0.9v-3.3
	l3.2-0.5l3.1,6.6c0.1,0.1,0.1,0.2,0.2,0.3C56.8,60,56.9,60,57,60c0.1,0,0.2,0,0.3-0.1c0.1-0.1,0.2-0.2,0.2-0.3l2.9-6.6l3,0.5v3.5
	c-0.7,0.1-1.2,0.5-1.7,1c-0.4,0.5-0.6,1.2-0.6,1.8v2.3c0,0.1,0,0.2,0,0.2c0,0.1,0.1,0.1,0.1,0.2c0.1,0.1,0.1,0.1,0.2,0.1
	c0.1,0,0.2,0,0.2,0h1c0.2,0,0.3-0.1,0.4-0.2c0.1-0.1,0.2-0.3,0.2-0.4c0-0.2-0.1-0.3-0.2-0.4c-0.1-0.1-0.3-0.2-0.4-0.2h-0.4v-1.7
	c0-0.4,0.2-0.9,0.5-1.2c0.3-0.3,0.7-0.5,1.2-0.5c0.4,0,0.9,0.2,1.2,0.5c0.3,0.3,0.5,0.7,0.5,1.2v1.7l-0.3,0c-0.2,0-0.3,0.1-0.4,0.2
	c-0.1,0.1-0.2,0.3-0.2,0.4c0,0.2,0.1,0.3,0.2,0.4c0.1,0.1,0.3,0.2,0.4,0.2l0.9,0c0.1,0,0.2,0,0.2,0c0.1,0,0.1-0.1,0.2-0.1
	c0.1-0.1,0.1-0.1,0.1-0.2s0-0.2,0-0.2v-2.4c0-0.7-0.2-1.3-0.6-1.8c-0.4-0.5-1-0.9-1.6-1v-3.3c1.3,0.4,2.6,1.1,3.6,2
	c1,1,1.7,2.2,2.1,3.5l2.1,7.1c0,0.2,0.2,0.3,0.3,0.4c0.1,0.1,0.3,0.1,0.5,0c0.2,0,0.3-0.1,0.4-0.3C73.7,66.4,73.8,66.3,73.7,66.1z
	 M51.3,35.9c1.5-1.5,3.5-2.3,5.6-2.3c3.1,0,7.1,2.1,7.1,5.7v0.8c-4.3,0.7-6.5-0.8-6.5-0.8c-0.1,0-0.1-0.1-0.2-0.1
	c-0.1,0-0.2,0-0.2,0c-0.8,0.1-1.7,0.1-2.5-0.2c-0.8-0.3-1.5-0.7-2.2-1.2c-0.1-0.1-0.2-0.1-0.3-0.2c-0.1,0-0.2,0-0.3,0
	c-0.1,0-0.2,0.1-0.3,0.1c-0.1,0.1-0.1,0.2-0.2,0.3c-0.3,0.9-0.8,1.8-1.5,2.5v-1.2c0-0.6,0.1-1.3,0.4-1.9
	C50.5,36.9,50.8,36.4,51.3,35.9z M49.8,43.1v-0.8c1-0.8,1.8-1.9,2.3-3c1.4,1,3.1,1.5,4.8,1.3c0.7,0.4,3,1.5,7,0.9v1.7
	c0,1.7-0.7,3.4-1.9,4.6s-2.9,1.9-4.6,1.9h-1.2c-1.7,0-3.4-0.7-4.6-1.9S49.8,44.8,49.8,43.1z M50.5,59c0,0.3-0.1,0.5-0.3,0.7
	C50,59.9,49.8,60,49.5,60c-0.3,0-0.5-0.1-0.7-0.3c-0.2-0.2-0.3-0.4-0.3-0.7c0-0.3,0.1-0.5,0.3-0.7c0.2-0.2,0.4-0.3,0.7-0.3
	s0.5,0.1,0.7,0.3C50.4,58.5,50.5,58.8,50.5,59z M57,58l-2.6-5.7v-1.7c1,0.2,2.1,0.3,3.2,0.3c0.7,0,1.3-0.1,2-0.3v1.7L57,58z"/>
<path class="st6" d="M42.7,58.5c-1,2.1-3,6.7-2.6,8.3"/>
<path class="st7" d="M39.1,35.6v10.1c0,0.3-0.2,0.5-0.5,0.5h-1.6c-0.3,0-0.5,0.2-0.5,0.5l0,2.3c0,0.5-0.6,0.7-0.9,0.3l-2.3-3
	c-0.1-0.1-0.3-0.2-0.4-0.2H21.9c-0.3,0-0.5-0.2-0.5-0.5V35.6c0-0.3,0.2-0.5,0.5-0.5h16.7C38.8,35.1,39.1,35.3,39.1,35.6z"/>
<rect x="23.5" y="38.2" class="st5" width="13.5" height="1"/>
<rect x="23.5" y="40.3" class="st5" width="13.5" height="1"/>
<rect x="23.5" y="42.4" class="st5" width="13.5" height="1"/>
</svg>
