<svg width="32" height="32" viewBox="0 0 32 32" fill="none" xmlns="http://www.w3.org/2000/svg">
<rect width="32" height="32" rx="16" fill="#FCFBFB"/>
<g clip-path="url(#clip0_39_888)">
<path d="M23.16 12.9238C23.1525 12.3178 23.039 11.7178 22.8248 11.151C22.64 10.6724 22.3571 10.2378 21.9943 9.87509C21.6316 9.51234 21.197 9.22944 20.7184 9.04455C20.1587 8.83435 19.5674 8.72073 18.9696 8.70855C18.2 8.67415 17.956 8.66455 16.0024 8.66455C14.0488 8.66455 13.7984 8.66455 13.0344 8.70855C12.437 8.72082 11.8459 8.83444 11.2864 9.04455C10.8079 9.22944 10.3733 9.51234 10.0106 9.87509C9.64784 10.2378 9.36494 10.6724 9.18005 11.151C8.97021 11.7105 8.85686 12.3015 8.84485 12.899C8.81045 13.6694 8.80005 13.9134 8.80005 15.867C8.80005 17.8206 8.80005 18.0702 8.84485 18.835C8.85685 19.4334 8.96965 20.0238 9.18005 20.5846C9.36512 21.063 9.64818 21.4975 10.0111 21.8601C10.374 22.2227 10.8086 22.5054 11.2872 22.6902C11.8453 22.9085 12.4364 23.0302 13.0352 23.0501C13.8056 23.0845 14.0496 23.0949 16.0032 23.0949C17.9568 23.0949 18.2072 23.0949 18.9712 23.0501C19.569 23.0382 20.1603 22.9249 20.72 22.715C21.1981 22.5292 21.6322 22.246 21.9949 21.8834C22.3575 21.5207 22.6407 21.0866 22.8264 20.6086C23.0368 20.0486 23.1496 19.4582 23.1616 18.859C23.196 18.0894 23.2064 17.8454 23.2064 15.891C23.2048 13.9374 23.2048 13.6894 23.16 12.9238ZM15.9976 19.5614C13.9544 19.5614 12.2992 17.9062 12.2992 15.863C12.2992 13.8198 13.9544 12.1646 15.9976 12.1646C16.9785 12.1646 17.9192 12.5542 18.6128 13.2478C19.3064 13.9414 19.696 14.8821 19.696 15.863C19.696 16.8438 19.3064 17.7845 18.6128 18.4781C17.9192 19.1717 16.9785 19.5614 15.9976 19.5614ZM19.8432 12.8902C19.73 12.8903 19.6178 12.868 19.5131 12.8247C19.4084 12.7814 19.3133 12.7179 19.2332 12.6378C19.1531 12.5577 19.0896 12.4626 19.0463 12.3579C19.003 12.2532 18.9807 12.141 18.9808 12.0278C18.9808 11.9146 19.0031 11.8025 19.0465 11.6979C19.0898 11.5933 19.1533 11.4983 19.2333 11.4182C19.3134 11.3382 19.4084 11.2747 19.513 11.2314C19.6176 11.188 19.7297 11.1658 19.8428 11.1658C19.956 11.1658 20.0681 11.188 20.1727 11.2314C20.2773 11.2747 20.3723 11.3382 20.4524 11.4182C20.5324 11.4983 20.5959 11.5933 20.6392 11.6979C20.6826 11.8025 20.7048 11.9146 20.7048 12.0278C20.7048 12.5046 20.3193 12.8902 19.8432 12.8902Z" fill="#650C0F"/>
<path d="M15.9976 18.2653C17.3244 18.2653 18.4 17.1897 18.4 15.8629C18.4 14.5361 17.3244 13.4605 15.9976 13.4605C14.6708 13.4605 13.5952 14.5361 13.5952 15.8629C13.5952 17.1897 14.6708 18.2653 15.9976 18.2653Z" fill="#650C0F"/>
</g>
<defs>
<clipPath id="clip0_39_888">
<rect width="16" height="16" fill="white" transform="translate(8 8)"/>
</clipPath>
</defs>
</svg>
